<?xml version="1.0" encoding="UTF-8"?>
<svg version="1.1" xmlns="http://www.w3.org/2000/svg" width="244" height="244">
<path d="M0 0 C7.94223829 3.05753509 7.94223829 3.05753509 16.15795898 2.28491211 C16.90045898 1.93428711 17.64295898 1.58366211 18.40795898 1.22241211 C19.39795898 1.22241211 20.38795898 1.22241211 21.40795898 1.22241211 C21.04755553 10.77310373 16.19915185 19.58556453 9.40795898 26.22241211 C1.94461512 31.38465974 -3.41177199 33.41029832 -12.46704102 33.53491211 C-13.1618457 33.56391602 -13.85665039 33.59291992 -14.57250977 33.62280273 C-19.74935342 33.68617276 -22.62340147 32.4932022 -26.59204102 29.22241211 C-28.1241899 26.15811435 -27.82142649 23.60584791 -27.59204102 20.22241211 C-26.32037376 17.36116078 -25.26711631 15.73453819 -22.77954102 13.84741211 C-19.16690512 12.81523043 -15.91065336 13.56310593 -12.59204102 15.22241211 C-12.59204102 16.54241211 -12.59204102 17.86241211 -12.59204102 19.22241211 C-15.56204102 19.22241211 -18.53204102 19.22241211 -21.59204102 19.22241211 C-22.27986462 21.57608924 -22.27986462 21.57608924 -22.59204102 24.22241211 C-21.93204102 25.21241211 -21.27204102 26.20241211 -20.59204102 27.22241211 C-17.42266929 26.94069018 -15.2378612 26.73906826 -12.71704102 24.72241211 C-10.99279185 20.8907473 -10.93615951 17.34930695 -11.59204102 13.22241211 C-13.47087563 9.82605723 -14.88784339 8.57451092 -18.34204102 6.84741211 C-23.63507963 5.82952007 -27.70668845 6.19776398 -32.46704102 8.78491211 C-35.22538109 11.94889043 -36.64987191 14.97907013 -36.59204102 19.22241211 C-34.78536699 25.10074486 -32.27508944 27.78251795 -27.09204102 31.09741211 C-25.82842134 31.95529589 -24.56672509 32.81601901 -23.30688477 33.67944336 C-22.68023926 34.10435059 -22.05359375 34.52925781 -21.40795898 34.96704102 C-13.57692664 40.38075012 -6.85874803 46.25777344 -1.59204102 54.22241211 C-1.17051758 54.8450293 -0.74899414 55.46764648 -0.31469727 56.10913086 C3.53489803 62.64385312 4.31230922 70.54543662 2.88452148 77.92944336 C0.51023965 84.84535605 -4.1346943 90.43688042 -9.59204102 95.22241211 C-12.37719727 96.50366211 -12.37719727 96.50366211 -14.59204102 97.22241211 C-14.59204102 95.90241211 -14.59204102 94.58241211 -14.59204102 93.22241211 C-13.60204102 92.89241211 -12.61204102 92.56241211 -11.59204102 92.22241211 C-11.59204102 91.56241211 -11.59204102 90.90241211 -11.59204102 90.22241211 C-10.93204102 89.89241211 -10.27204102 89.56241211 -9.59204102 89.22241211 C-7.53286248 83.0448765 -7.46217615 75.70275207 -10.34204102 69.78491211 C-15.93769881 59.85928103 -25.2193336 53.97111119 -34.71704102 48.22241211 C-45.6332035 41.54615042 -52.46706137 34.59735106 -56.59204102 22.22241211 C-58.29905608 30.89973871 -56.87172565 37.32964249 -51.91625977 44.72241211 C-46.21906647 51.62541914 -39.03611678 56.40984066 -31.67797852 61.36303711 C-19.66595751 69.57484505 -19.66595751 69.57484505 -17.59204102 77.22241211 C-17.20253612 83.96571568 -19.35469452 89.06154138 -23.59204102 94.22241211 C-28.68688854 99.46847657 -33.47893788 102.48162394 -40.96704102 102.65991211 C-47.6063411 102.57764073 -53.08616876 100.68672458 -59.24438477 98.41381836 C-63.62467487 96.85490531 -67.51439417 96.08127247 -72.15454102 96.09741211 C-72.89833008 96.09483398 -73.64211914 96.09225586 -74.40844727 96.08959961 C-76.58598966 96.22204405 -78.49872046 96.62432052 -80.59204102 97.22241211 C-79.91687658 86.86989082 -74.28374539 77.9927144 -66.59204102 71.22241211 C-59.81335234 66.89273139 -53.61083468 65.09514875 -45.59204102 64.97241211 C-44.58141602 64.94663086 -43.57079102 64.92084961 -42.52954102 64.89428711 C-38.32962571 65.36342659 -35.73103167 67.08342146 -32.77954102 70.03491211 C-31.12913234 73.07513861 -31.04476075 74.80191042 -31.59204102 78.22241211 C-33.96194675 81.91667693 -35.44224029 83.84696697 -39.65454102 85.22241211 C-42.65369434 85.22241211 -44.11055076 84.84492497 -46.59204102 83.22241211 C-46.09704102 81.24241211 -46.09704102 81.24241211 -45.59204102 79.22241211 C-42.95204102 79.22241211 -40.31204102 79.22241211 -37.59204102 79.22241211 C-36.82247966 76.8770726 -36.82247966 76.8770726 -36.59204102 74.22241211 C-37.59204102 72.22241211 -37.59204102 72.22241211 -39.59204102 71.22241211 C-42.59628658 71.29751825 -44.08857587 71.8057513 -46.40454102 73.72241211 C-48.21501475 77.53393575 -48.13218938 81.07880819 -47.59204102 85.22241211 C-46.30098987 88.41606495 -45.3809654 89.73513528 -42.46704102 91.53491211 C-37.38475059 92.75024243 -32.65832869 92.98604016 -27.71704102 91.15991211 C-24.74358465 88.44881955 -23.7447807 86.06487773 -22.59204102 82.22241211 C-22.79695419 78.19245301 -23.2354139 74.57130328 -25.59204102 71.22241211 C-26.91555655 70.53646105 -28.2506488 69.87271138 -29.59204102 69.22241211 C-43.10680685 60.96631002 -55.30120491 51.12679334 -61.84204102 36.40991211 C-63.8700049 27.7910656 -62.62087358 21.84003964 -58.37329102 14.06616211 C-54.91568713 8.54612784 -51.26564354 2.84025515 -44.59204102 1.22241211 C-44.59204102 5.22241211 -44.59204102 5.22241211 -45.90454102 6.75756836 C-46.46141602 7.2615918 -47.01829102 7.76561523 -47.59204102 8.28491211 C-50.42870647 11.40323229 -51.06792356 13.51280395 -51.15454102 17.72241211 C-50.68792786 25.47455339 -47.76369919 30.65293407 -42.59204102 36.22241211 C-41.60204102 36.71741211 -41.60204102 36.71741211 -40.59204102 37.22241211 C-40.59204102 37.88241211 -40.59204102 38.54241211 -40.59204102 39.22241211 C-40.03645508 39.32424805 -39.48086914 39.42608398 -38.90844727 39.53100586 C-33.98932211 40.99927762 -29.81987088 44.38740817 -25.59204102 47.22241211 C-24.62911133 47.85791992 -23.66618164 48.49342773 -22.67407227 49.14819336 C-13.75598641 55.28629659 -7.8776179 62.27987373 -3.59204102 72.22241211 C-3.59204102 73.21241211 -3.59204102 74.20241211 -3.59204102 75.22241211 C-2.93204102 75.22241211 -2.27204102 75.22241211 -1.59204102 75.22241211 C-0.87449505 65.53554159 -4.34959911 58.28327643 -10.22485352 50.71850586 C-11.54132351 49.09836472 -11.54132351 49.09836472 -13.59204102 48.22241211 C-13.59204102 47.56241211 -13.59204102 46.90241211 -13.59204102 46.22241211 C-14.63424805 45.87243164 -14.63424805 45.87243164 -15.69750977 45.51538086 C-19.15641684 43.97030901 -21.95611573 41.87025973 -24.90454102 39.53491211 C-25.47342041 39.08865479 -26.0422998 38.64239746 -26.62841797 38.18261719 C-28.29005654 36.87116936 -29.94240616 35.548912 -31.59204102 34.22241211 C-32.85661133 33.21307617 -32.85661133 33.21307617 -34.14672852 32.18334961 C-39.05326958 28.10355173 -41.21977272 25.44873733 -41.96704102 18.97241211 C-41.23516268 11.65362872 -38.26916732 5.9533507 -32.59204102 1.22241211 C-21.80029359 -6.54764604 -11.77796394 -4.34057769 0 0 Z " fill="#5F7A51" transform="translate(147.592041015625,67.777587890625)"/>
<path d="M0 0 C1.30710938 0.00737183 1.30710938 0.00737183 2.640625 0.01489258 C23.65269578 0.39204223 43.56360233 9.29302549 58.3125 24.3125 C73.6146234 41.81503269 79.77369897 63.07202988 78.50146484 86.00439453 C76.98692229 104.50372956 67.94899895 123.44787947 53.75244141 135.65380859 C49.77934098 138.8092935 45.59278953 141.59504422 41.3125 144.3125 C40.28253906 144.98539063 39.25257813 145.65828125 38.19140625 146.3515625 C21.84385511 156.13926828 1.75230399 157.60134633 -16.48828125 153.1484375 C-17.54402344 152.87257812 -18.59976563 152.59671875 -19.6875 152.3125 C-20.54730469 152.11914062 -21.40710938 151.92578125 -22.29296875 151.7265625 C-40.53541527 147.1436314 -56.22831403 133.30839487 -65.74609375 117.56103516 C-73.16456957 105.03080709 -76.21550972 93.82492031 -76 79.1875 C-76.00322266 78.08535156 -76.00644531 76.98320313 -76.00976562 75.84765625 C-75.87047315 54.49791946 -67.44764074 36.25460353 -52.49609375 21.08984375 C-38.23051042 7.8450535 -19.54160018 -0.13188287 0 0 Z M-55.6875 30.3125 C-58.29727586 33.84398241 -60.5302099 37.49086324 -62.6875 41.3125 C-63.22246094 42.19035156 -63.75742187 43.06820312 -64.30859375 43.97265625 C-73.39608726 60.08539411 -74.60423406 79.13313208 -69.875 96.75 C-63.04634343 118.30904432 -50.58454577 133.52885459 -30.42578125 144.03125 C-13.66152305 151.87529663 7.66817347 153.63663137 25.3125 147.3125 C34.13696582 143.50810378 42.00239248 138.54406707 49.3125 132.3125 C49.9003125 131.879375 50.488125 131.44625 51.09375 131 C62.87313208 122.00483551 71.15870318 105.28908858 73.75 90.875 C76.09727293 69.8277861 72.84740185 50.8052955 60 33.5 C58.79764578 32.08100538 57.5660931 30.68643804 56.3125 29.3125 C55.12914062 27.97445312 55.12914062 27.97445312 53.921875 26.609375 C41.14946357 12.94065399 24.19771993 5.23620134 5.47265625 4.07421875 C-18.00022356 3.44328875 -40.21388179 12.24228147 -55.6875 30.3125 Z " fill="#869179" transform="translate(119.6875,43.6875)"/>
<path d="M0 0 C7.94223829 3.05753509 7.94223829 3.05753509 16.15795898 2.28491211 C16.90045898 1.93428711 17.64295898 1.58366211 18.40795898 1.22241211 C19.39795898 1.22241211 20.38795898 1.22241211 21.40795898 1.22241211 C21.04755553 10.77310373 16.19915185 19.58556453 9.40795898 26.22241211 C1.94461512 31.38465974 -3.41177199 33.41029832 -12.46704102 33.53491211 C-13.1618457 33.56391602 -13.85665039 33.59291992 -14.57250977 33.62280273 C-19.74935342 33.68617276 -22.62340147 32.4932022 -26.59204102 29.22241211 C-28.1241899 26.15811435 -27.82142649 23.60584791 -27.59204102 20.22241211 C-26.32037376 17.36116078 -25.26711631 15.73453819 -22.77954102 13.84741211 C-19.16690512 12.81523043 -15.91065336 13.56310593 -12.59204102 15.22241211 C-12.59204102 16.54241211 -12.59204102 17.86241211 -12.59204102 19.22241211 C-15.56204102 19.22241211 -18.53204102 19.22241211 -21.59204102 19.22241211 C-22.27986462 21.57608924 -22.27986462 21.57608924 -22.59204102 24.22241211 C-21.93204102 25.21241211 -21.27204102 26.20241211 -20.59204102 27.22241211 C-17.42266929 26.94069018 -15.2378612 26.73906826 -12.71704102 24.72241211 C-10.99279185 20.8907473 -10.93615951 17.34930695 -11.59204102 13.22241211 C-13.47087563 9.82605723 -14.88784339 8.57451092 -18.34204102 6.84741211 C-23.63507963 5.82952007 -27.70668845 6.19776398 -32.46704102 8.78491211 C-35.22538109 11.94889043 -36.64987191 14.97907013 -36.59204102 19.22241211 C-34.73177372 25.32187589 -32.16918178 27.883529 -26.90454102 31.28491211 C-25.64770919 32.13990858 -24.39119726 32.99537549 -23.13500977 33.85131836 C-22.52834473 34.25624512 -21.92167969 34.66117188 -21.29663086 35.07836914 C-19.06536777 36.57589118 -16.88292525 38.13202314 -14.71704102 39.72241211 C-13.7927832 40.38756836 -13.7927832 40.38756836 -12.84985352 41.06616211 C-12.22723633 41.63850586 -12.22723633 41.63850586 -11.59204102 42.22241211 C-11.59204102 42.88241211 -11.59204102 43.54241211 -11.59204102 44.22241211 C-12.58204102 44.22241211 -13.57204102 44.22241211 -14.59204102 44.22241211 C-13.60204102 44.88241211 -12.61204102 45.54241211 -11.59204102 46.22241211 C-11.59204102 46.88241211 -11.59204102 47.54241211 -11.59204102 48.22241211 C-12.25204102 48.22241211 -12.91204102 48.22241211 -13.59204102 48.22241211 C-13.59204102 47.56241211 -13.59204102 46.90241211 -13.59204102 46.22241211 C-14.2868457 45.9890918 -14.98165039 45.75577148 -15.69750977 45.51538086 C-19.15641684 43.97030901 -21.95611573 41.87025973 -24.90454102 39.53491211 C-25.47342041 39.08865479 -26.0422998 38.64239746 -26.62841797 38.18261719 C-28.29005654 36.87116936 -29.94240616 35.548912 -31.59204102 34.22241211 C-32.43508789 33.54952148 -33.27813477 32.87663086 -34.14672852 32.18334961 C-39.05326958 28.10355173 -41.21977272 25.44873733 -41.96704102 18.97241211 C-41.23516268 11.65362872 -38.26916732 5.9533507 -32.59204102 1.22241211 C-21.80029359 -6.54764604 -11.77796394 -4.34057769 0 0 Z " fill="#617757" transform="translate(147.592041015625,67.777587890625)"/>
<path d="M0 0 C0.99 0.33 1.98 0.66 3 1 C1.78956362 3.86103145 0.64885531 5.3427841 -1.625 7.5625 C-4.73450467 11.18718888 -4.58698166 14.70256847 -4.35546875 19.3203125 C-3.48249233 25.90121165 -0.38089361 30.28211458 4 35 C4.66 35.33 5.32 35.66 6 36 C6 36.66 6 37.32 6 38 C6.83337891 38.15275391 6.83337891 38.15275391 7.68359375 38.30859375 C12.6027189 39.77686551 16.77217014 43.16499606 21 46 C21.96292969 46.63550781 22.92585938 47.27101562 23.91796875 47.92578125 C32.83605461 54.06388448 38.71442311 61.05746162 43 71 C43 71.99 43 72.98 43 74 C43.66 74 44.32 74 45 74 C45.71468311 64.35177796 42.35695298 57.0733683 36.26953125 49.69140625 C35 48 35 48 34 45 C32.70644173 43.62804426 31.37701298 42.28817344 30 41 C35.43111817 41.67888977 37.71315147 43.37495264 41.1875 47.625 C42.48966479 49.39402619 43.76298706 51.18481797 45 53 C45.44859375 53.65355469 45.8971875 54.30710938 46.359375 54.98046875 C50.16989562 61.45559255 50.88824107 69.40633538 49.4765625 76.70703125 C47.10228066 83.62294394 42.45734672 89.21446831 37 94 C34.21484375 95.28125 34.21484375 95.28125 32 96 C32 94.68 32 93.36 32 92 C32.99 91.67 33.98 91.34 35 91 C35 90.34 35 89.68 35 89 C35.66 88.67 36.32 88.34 37 88 C39.05917854 81.82246439 39.12986487 74.48033996 36.25 68.5625 C30.65434221 58.63686892 21.37270741 52.74869908 11.875 47 C0.95883752 40.32373831 -5.87502035 33.37493895 -10 21 C-11.60639623 30.05423331 -9.54291861 36.6488347 -6 45 C-5.67 45.99 -5.34 46.98 -5 48 C-4.01 48.33 -3.02 48.66 -2 49 C-2 49.66 -2 50.32 -2 51 C-1.34 51 -0.68 51 0 51 C0 51.66 0 52.32 0 53 C1.485 53.495 1.485 53.495 3 54 C2.67 54.66 2.34 55.32 2 56 C-6.44549683 51.90521366 -11.56224256 43.48495425 -15.25 35.1875 C-17.27851168 26.56632536 -16.02086059 20.62544507 -11.7890625 12.84375 C-8.56325657 7.71626808 -5.05483414 3.36988943 0 0 Z " fill="#534F52" transform="translate(101,69)"/>
<path d="M0 0 C0 0.99 0 1.98 0 3 C-1.65234375 4.47265625 -1.65234375 4.47265625 -3.9375 6.0625 C-17.61674971 16.35409852 -26.06526312 30.45762452 -30 47 C-30.35384766 48.44439453 -30.35384766 48.44439453 -30.71484375 49.91796875 C-34.85944774 69.99085474 -28.67320841 89.71086959 -17.75 106.54296875 C-15.7256226 109.38523077 -13.53391337 111.61965713 -11 114 C-11 114.66 -11 115.32 -11 116 C-10.44570312 116.25136719 -9.89140625 116.50273437 -9.3203125 116.76171875 C-6.61235042 118.20687697 -4.31586357 119.95160839 -1.875 121.8125 C9.98176753 130.51587191 22.21559867 134.81613707 36.8125 135.5625 C37.60076172 135.60568359 38.38902344 135.64886719 39.20117188 135.69335938 C41.13394215 135.79878321 43.06695026 135.89983094 45 136 C45 136.33 45 136.66 45 137 C44.16597656 137.06058594 43.33195312 137.12117187 42.47265625 137.18359375 C41.34730469 137.26738281 40.22195312 137.35117188 39.0625 137.4375 C37.27005859 137.56511719 37.27005859 137.56511719 35.44140625 137.6953125 C32.72942377 137.93541992 30.16980021 138.32345248 27.5 138.8125 C14.34239285 140.25048985 0.71744049 130.91143515 -9.20043945 123.0715332 C-22.83483104 111.802636 -32.96026953 95.50858258 -36 78 C-36.3596377 73.61321412 -36.37726708 69.2739799 -36.3125 64.875 C-36.31572266 63.77285156 -36.31894531 62.67070313 -36.32226562 61.53515625 C-36.23683349 48.44073992 -33.2414349 36.54665456 -27 25 C-26.01 25 -25.02 25 -24 25 C-23.7628125 24.29488281 -23.525625 23.58976562 -23.28125 22.86328125 C-20.18454947 15.94291085 -8.29969206 0 0 0 Z " fill="#899C7F" transform="translate(80,58)"/>
<path d="M0 0 C0.495 0.99 0.495 0.99 1 2 C-1 5 -1 5 -3.2578125 5.66796875 C-4.20398438 5.83941406 -5.15015625 6.01085937 -6.125 6.1875 C-27.14215356 10.99286604 -46.99285661 26.35821949 -59 44 C-68.21394885 59.71017338 -72.68623057 75.21053667 -73.75390625 93.3828125 C-74 96 -74 96 -75 98 C-76.32 98 -77.64 98 -79 98 C-83.4701394 89.0597212 -77.48931887 72.5152708 -74.6796875 63.59765625 C-70.06131514 50.07115723 -62.44852227 38.6736415 -53 28 C-52.38769531 27.30390625 -51.77539062 26.6078125 -51.14453125 25.890625 C-39.21053643 13.16781603 -18.16256507 -1.15931266 0 0 Z " fill="#8BA87C" transform="translate(103,25)"/>
<path d="M0 0 C18.48790495 2.79613912 35.85042647 11.80428761 49 25 C49.75539062 25.69609375 50.51078125 26.3921875 51.2890625 27.109375 C68.26539646 43.09396436 78.96172625 66.74035063 80.15234375 89.97265625 C80.23720196 96.52559607 80.23720196 96.52559607 79 99 C78.01 99 77.02 99 76 99 C74.79553104 95.38659313 74.51050967 91.82768548 74.125 88.0625 C71.67990527 66.20441523 63.439699 47.8615487 48 32 C47.13955078 31.06414063 47.13955078 31.06414063 46.26171875 30.109375 C33.33516589 16.41154811 16.67457931 10.03992603 -1 5 C-0.67 3.35 -0.34 1.7 0 0 Z " fill="#92AD80" transform="translate(140,24)"/>
<path d="M0 0 C0.639375 0.37125 1.27875 0.7425 1.9375 1.125 C4.82131805 2.34843796 6.9703481 1.52689598 10 1 C12.64516087 3.64516087 12.32873984 5.00056515 12.375 8.6875 C12.2790755 14.40185923 11.46454509 17.47684391 8 22 C3.56790168 26.00040043 -1.21358899 26.13437239 -7 26 C-12.6626512 24.1467687 -15.46538281 20.8390418 -18.25 15.6875 C-19.51872886 11.1412216 -19.71491514 6.95410139 -18.0625 2.4375 C-14.99124287 0.29692685 -12.44720909 1.06902566 -8.86328125 1.640625 C-7.94095703 1.81851562 -7.94095703 1.81851562 -7 2 C-7 1.34 -7 0.68 -7 0 C-4.27761216 -1.36119392 -2.90677521 -0.76129827 0 0 Z M-4 5 C-4 5.66 -4 6.32 -4 7 C-3.34 7 -2.68 7 -2 7 C-2 6.34 -2 5.68 -2 5 C-2.66 5 -3.32 5 -4 5 Z M-13 7 C-14.0326802 9.78823655 -14.04509293 10.8677274 -13.0625 13.75 C-12.711875 14.4925 -12.36125 15.235 -12 16 C-11.67 16 -11.34 16 -11 16 C-11 13.36 -11 10.72 -11 8 C-11.66 7.67 -12.32 7.34 -13 7 Z M6 7 C4.58422523 8.18424326 4.58422523 8.18424326 4.9375 11.5625 C4.958125 12.696875 4.97875 13.83125 5 15 C5.66 14.67 6.32 14.34 7 14 C7 11.69 7 9.38 7 7 C6.67 7 6.34 7 6 7 Z " fill="#5E9A47" transform="translate(124,11)"/>
<path d="M0 0 C0.33 0.66 0.66 1.32 1 2 C0.360625 3.051875 -0.27875 4.10375 -0.9375 5.1875 C-3.9167352 10.16663702 -3.32206974 14.2139769 -2.3125 19.8125 C-1.33894638 23.10323704 -1.33894638 23.10323704 1.1875 24.25 C2.115625 24.4975 3.04375 24.745 4 25 C5.27784072 25.52492212 6.54863708 26.06726292 7.8125 26.625 C8.864375 27.07875 9.91625 27.5325 11 28 C10.505 29.485 10.505 29.485 10 31 C4.2402024 31.50085197 0.38148929 30.16279069 -4.86328125 27.77734375 C-5.92095703 27.39255859 -5.92095703 27.39255859 -7 27 C-7.66 27.33 -8.32 27.66 -9 28 C-10.98828125 27.44140625 -10.98828125 27.44140625 -13.3125 26.5625 C-16.68254665 25.36667699 -19.38171457 24.64984335 -23 25 C-23 25.33 -23 25.66 -23 26 C-24.66611905 26.042721 -26.33382885 26.04063832 -28 26 C-29 25 -29 25 -29.234375 22.71875 C-28.82528681 17.97332699 -25.74382404 14.74966478 -23 11 C-22.401875 10.0925 -21.80375 9.185 -21.1875 8.25 C-15.29798491 2.19221305 -8.27249831 -0.18801133 0 0 Z " fill="#53A934" transform="translate(100,136)"/>
<path d="M0 0 C1.30710938 0.00737183 1.30710938 0.00737183 2.640625 0.01489258 C24.35299352 0.40461201 42.59219057 9.81248856 58.3125 24.3125 C60.22265625 26.4296875 60.22265625 26.4296875 61.3125 28.3125 C60.8175 29.7975 60.8175 29.7975 60.3125 31.3125 C61.28601526 33.42816786 61.28601526 33.42816786 62.75 35.5 C63.22308594 36.21542969 63.69617188 36.93085937 64.18359375 37.66796875 C64.55613281 38.21066406 64.92867187 38.75335938 65.3125 39.3125 C61.82076337 38.14858779 61.33819424 37.29436738 59.25 34.375 C47.39990059 18.82174452 32.19210393 9.12113743 12.8671875 5.703125 C-3.21836727 3.93548162 -17.7541572 5.94388639 -32.35546875 13.1640625 C-34.75717879 14.34681418 -37.19187506 15.34616565 -39.6875 16.3125 C-39.6875 15.6525 -39.6875 14.9925 -39.6875 14.3125 C-40.89745254 15.20614515 -42.10536111 16.10255779 -43.3125 17 C-44.32183594 17.74830078 -44.32183594 17.74830078 -45.3515625 18.51171875 C-46.50785156 19.40310547 -46.50785156 19.40310547 -47.6875 20.3125 C-48.65945312 21.055 -49.63140625 21.7975 -50.6328125 22.5625 C-54.08449381 25.45747614 -56.45149315 28.89982615 -58.9375 32.625 C-60.47037492 34.90834493 -62.03213986 37.1123001 -63.6875 39.3125 C-64.3475 39.3125 -65.0075 39.3125 -65.6875 39.3125 C-61.04667306 25.8273746 -46.92873879 14.77357412 -34.6875 8.3125 C-23.45543823 3.28755457 -12.37805794 -0.08353736 0 0 Z " fill="#9FAD94" transform="translate(119.6875,43.6875)"/>
<path d="M0 0 C3.3 0.66 6.6 1.32 10 2 C10 2.66 10 3.32 10 4 C11.918125 4.185625 11.918125 4.185625 13.875 4.375 C18.98644221 4.93571465 23.97606474 5.91969659 29 7 C28.50505051 13.55808081 28.50505051 13.55808081 26 15.75 C25.34 16.1625 24.68 16.575 24 17 C23.67 17.99 23.34 18.98 23 20 C21.68 20 20.36 20 19 20 C18.34 21.32 17.68 22.64 17 24 C16.34 24 15.68 24 15 24 C15 24.66 15 25.32 15 26 C11.7 26.66 8.4 27.32 5 28 C4.67 27.01 4.34 26.02 4 25 C4.33 24.34 4.66 23.68 5 23 C5.66 23 6.32 23 7 23 C6.82234033 14.06856381 5.39118529 9.39118529 -1 3 C-0.67 2.01 -0.34 1.02 0 0 Z " fill="#52AA33" transform="translate(133,69)"/>
<path d="M0 0 C0.495 1.485 0.495 1.485 1 3 C0.01 3.33 -0.98 3.66 -2 4 C-2.6837045 5.32467746 -3.34964186 6.65863633 -4 8 C-4.99 8.66 -5.98 9.32 -7 10 C-6.34 10.66 -5.68 11.32 -5 12 C-7.03971112 13.27406288 -9.08165264 14.54429202 -11.125 15.8125 C-11.69476563 16.16892578 -12.26453125 16.52535156 -12.8515625 16.89257812 C-19.46519174 20.98851896 -25.36268409 23.61694324 -32.9375 25.1875 C-33.76926758 25.36112061 -34.60103516 25.53474121 -35.45800781 25.71362305 C-45.42405787 27.65443031 -54.95596987 27.56778643 -65 26 C-64.67 25.34 -64.34 24.68 -64 24 C-61.65336704 23.56904998 -59.36734628 23.26357094 -57 23 C-55.34574178 22.7766246 -53.69212501 22.54846474 -52.0390625 22.31640625 C-51.15476562 22.19330078 -50.27046875 22.07019531 -49.359375 21.94335938 C-48.45703125 21.81767578 -47.5546875 21.69199219 -46.625 21.5625 C-45.73039062 21.44068359 -44.83578125 21.31886719 -43.9140625 21.19335938 C-35.1523619 19.96442899 -27.28840769 18.6605084 -19.5 14.3125 C-18.85708008 13.9616333 -18.21416016 13.6107666 -17.55175781 13.24926758 C-11.04416766 9.61349103 -5.20599647 5.35060748 0 0 Z " fill="#8EA682" transform="translate(172,172)"/>
<path d="M0 0 C0.99 0.33 1.98 0.66 3 1 C1.80620288 3.82170228 0.53967683 5.50523275 -1.5625 7.8125 C-4.31354766 10.97620481 -4.74869992 13.81166533 -5 18 C-5.66 18 -6.32 18 -7 18 C-6.77183594 18.61488281 -6.54367188 19.22976562 -6.30859375 19.86328125 C-6.02113281 20.67152344 -5.73367187 21.47976562 -5.4375 22.3125 C-5.14746094 23.11300781 -4.85742188 23.91351563 -4.55859375 24.73828125 C-4 27 -4 27 -5 30 C-8.0916909 27.47043472 -8.90931332 24.77545388 -10 21 C-11.60639623 30.05423331 -9.54291861 36.6488347 -6 45 C-5.67 45.99 -5.34 46.98 -5 48 C-4.01 48.33 -3.02 48.66 -2 49 C-2 49.66 -2 50.32 -2 51 C-1.34 51 -0.68 51 0 51 C0 51.66 0 52.32 0 53 C1.485 53.495 1.485 53.495 3 54 C2.67 54.66 2.34 55.32 2 56 C-6.44549683 51.90521366 -11.56224256 43.48495425 -15.25 35.1875 C-17.27851168 26.56632536 -16.02086059 20.62544507 -11.7890625 12.84375 C-8.56325657 7.71626808 -5.05483414 3.36988943 0 0 Z " fill="#3F3B3F" transform="translate(101,69)"/>
<path d="M0 0 C0.4993376 7.89650155 -3.67690496 14.1003028 -8.25 20.3125 C-15.605877 27.50119798 -22.79359011 30.173765 -32.875 30.3125 C-33.91720703 30.35600586 -33.91720703 30.35600586 -34.98046875 30.40039062 C-40.1573124 30.46376065 -43.03136045 29.27079009 -47 26 C-48.53214888 22.93570224 -48.22938548 20.3834358 -48 17 C-46.72833274 14.13874867 -45.67507529 12.51212609 -43.1875 10.625 C-39.57486411 9.59281832 -36.31861235 10.34069383 -33 12 C-33 13.32 -33 14.64 -33 16 C-35.97 16 -38.94 16 -42 16 C-43.15837626 20.05431692 -42.83691257 22.21812119 -41 26 C-33.16599652 27.43854489 -26.49507117 26.74560953 -19 24 C-15.97603299 22.00511714 -15.97603299 22.00511714 -14 20 C-13.34 20 -12.68 20 -12 20 C-11.7525 19.443125 -11.505 18.88625 -11.25 18.3125 C-10 16 -10 16 -8.0625 13.75 C-5.47577396 10.30103195 -4.38128064 7.0747779 -3 3 C-3.66 2.67 -4.32 2.34 -5 2 C-2 0 -2 0 0 0 Z " fill="#4F6642" transform="translate(168,71)"/>
<path d="M0 0 C0 0.99 0 1.98 0 3 C-1.65234375 4.47265625 -1.65234375 4.47265625 -3.9375 6.0625 C-19.69157412 17.91509495 -28.12315419 34.51089731 -31.125 53.75 C-31.25132813 54.73484375 -31.37765625 55.7196875 -31.5078125 56.734375 C-31.67023437 57.48203125 -31.83265625 58.2296875 -32 59 C-32.99 59.495 -32.99 59.495 -34 60 C-34.46523063 61.89533342 -34.46523063 61.89533342 -34.625 64.0625 C-34.74875 65.361875 -34.8725 66.66125 -35 68 C-34.34 68 -33.68 68 -33 68 C-33 72.29 -33 76.58 -33 81 C-36 78 -36 78 -36.37231445 75.43139648 C-36.3693335 74.42149658 -36.36635254 73.41159668 -36.36328125 72.37109375 C-36.36231445 70.69370117 -36.36231445 70.69370117 -36.36132812 68.98242188 C-36.34521484 67.81259766 -36.32910156 66.64277344 -36.3125 65.4375 C-36.31572266 64.29474609 -36.31894531 63.15199219 -36.32226562 61.97460938 C-36.23872958 48.69237765 -33.33584077 36.72130543 -27 25 C-26.01 25 -25.02 25 -24 25 C-23.7628125 24.29488281 -23.525625 23.58976562 -23.28125 22.86328125 C-20.18454947 15.94291085 -8.29969206 0 0 0 Z " fill="#86947C" transform="translate(80,58)"/>
<path d="M0 0 C0.66 0 1.32 0 2 0 C2.14695312 0.556875 2.29390625 1.11375 2.4453125 1.6875 C4.21139952 7.69625582 6.7549361 12.36472132 11 17 C11.66 17.33 12.32 17.66 13 18 C13 18.66 13 19.32 13 20 C13.55558594 20.10183594 14.11117187 20.20367187 14.68359375 20.30859375 C19.6027189 21.77686551 23.77217014 25.16499606 28 28 C28.96292969 28.63550781 29.92585938 29.27101563 30.91796875 29.92578125 C39.86983271 36.08713313 45.6412927 43.06214736 50 53 C50 53.66 50 54.32 50 55 C49.34 55 48.68 55 48 55 C47.64808594 54.21496094 47.29617187 53.42992187 46.93359375 52.62109375 C43.78899417 45.92958289 40.68340648 40.77540663 35 36 C35.639375 36.7425 36.27875 37.485 36.9375 38.25 C38.84096596 40.78795462 39.39464941 42.01785181 40 45 C39.030625 44.154375 38.06125 43.30875 37.0625 42.4375 C30.61647124 36.94168265 24.05900223 31.98361246 16.875 27.5 C10.04422129 23.2078458 3.45232605 18.55196324 0 11 C0.33 10.34 0.66 9.68 1 9 C1 5.88772805 0.54372951 3.05847848 0 0 Z " fill="#65636C" transform="translate(94,87)"/>
<path d="M0 0 C0.495 0.99 0.495 0.99 1 2 C-1 5 -1 5 -3.2578125 5.66796875 C-4.20398438 5.83941406 -5.15015625 6.01085937 -6.125 6.1875 C-22.19791481 9.86241434 -35.73159625 19.56570268 -47.49609375 30.70703125 C-50 33 -50 33 -52 34 C-51.43745592 30.41378148 -50.26415203 28.9854756 -47.5 26.6875 C-46.78585938 26.089375 -46.07171875 25.49125 -45.3359375 24.875 C-42.21512764 22.37000212 -39.06687379 19.90457116 -35.8828125 17.48046875 C-33.91170452 15.99089213 -33.91170452 15.99089213 -32 14 C-32.99 14.66 -33.98 15.32 -35 16 C-35.99 15.67 -36.98 15.34 -38 15 C-27.10077875 7.48176167 -13.58685222 -0.54347409 0 0 Z " fill="#91AD7F" transform="translate(103,25)"/>
<path d="M0 0 C0.639375 0.37125 1.27875 0.7425 1.9375 1.125 C4.82131805 2.34843796 6.9703481 1.52689598 10 1 C12.64516087 3.64516087 12.32873984 5.00056515 12.375 8.6875 C12.2790755 14.40185923 11.46454509 17.47684391 8 22 C4.70967742 25 4.70967742 25 2 25 C1.3125 22.6875 1.3125 22.6875 1 20 C2.4375 18.1875 2.4375 18.1875 4 17 C4.33 18.32 4.66 19.64 5 21 C9.06294904 16.13241092 9.06294904 16.13241092 10.3125 10.0625 C10.209375 9.051875 10.10625 8.04125 10 7 C9.01 8.485 9.01 8.485 8 10 C7.67 8.35 7.34 6.7 7 5 C7.99 5 8.98 5 10 5 C10 4.34 10 3.68 10 3 C9.38511719 3.17917969 8.77023438 3.35835937 8.13671875 3.54296875 C7.32847656 3.75566406 6.52023438 3.96835938 5.6875 4.1875 C4.88699219 4.40792969 4.08648437 4.62835937 3.26171875 4.85546875 C1 5 1 5 -0.79296875 3.55078125 C-1.19128906 3.03902344 -1.58960937 2.52726563 -2 2 C-1.443125 3.11375 -1.443125 3.11375 -0.875 4.25 C0 7 0 7 -0.875 9.3125 C-1.431875 10.1478125 -1.431875 10.1478125 -2 11 C-5.875 9.25 -5.875 9.25 -7 7 C-9.35599235 6.53248212 -9.35599235 6.53248212 -12.0625 6.375 C-12.98160156 6.30023437 -13.90070313 6.22546875 -14.84765625 6.1484375 C-15.55792969 6.09945313 -16.26820312 6.05046875 -17 6 C-16.54885333 13.14056273 -15.50352797 18.02061755 -10 23 C-10.99 23 -11.98 23 -13 23 C-17.03527444 18.72016347 -19.06289672 14.79775092 -19.3125 8.9375 C-19 5 -19 5 -18.0625 2.4375 C-14.99124287 0.29692685 -12.44720909 1.06902566 -8.86328125 1.640625 C-7.94095703 1.81851562 -7.94095703 1.81851562 -7 2 C-7 1.34 -7 0.68 -7 0 C-4.27761216 -1.36119392 -2.90677521 -0.76129827 0 0 Z M-4 5 C-4 5.66 -4 6.32 -4 7 C-3.34 7 -2.68 7 -2 7 C-2 6.34 -2 5.68 -2 5 C-2.66 5 -3.32 5 -4 5 Z " fill="#7EA16C" transform="translate(124,11)"/>
<path d="M0 0 C9.22925732 3.80028243 13.54518129 16.50171701 17.24511719 25.17773438 C22.05877805 36.79777469 25.10468933 49.33460834 24 62 C23.67 62.66 23.34 63.32 23 64 C22.34 64 21.68 64 21 64 C20.93530518 63.351521 20.87061035 62.70304199 20.80395508 62.03491211 C18.78524767 42.46298059 14.59448646 27.05808168 5.00683594 9.83935547 C3.59644182 7.26275284 2.29304553 4.63702922 1 2 C0.67 1.34 0.34 0.68 0 0 Z " fill="#6C9454" transform="translate(196,59)"/>
<path d="M0 0 C0.639375 0.66 1.27875 1.32 1.9375 2 C2.95353756 3.00487231 3.97499278 4.0042787 5 5 C5.56203125 5.5465625 6.1240625 6.093125 6.703125 6.65625 C12.61402233 12.14826484 19.08211055 16.75753961 25.70385742 21.34375 C32.42509447 26.06736386 36.10569229 29.94919224 38 38 C37.34 38 36.68 38 36 38 C35.34 38.99 34.68 39.98 34 41 C33.52014033 39.72942818 33.0411407 38.45853152 32.5625 37.1875 C32.29566406 36.47980469 32.02882812 35.77210938 31.75390625 35.04296875 C31.13774814 33.37327604 30.56280765 31.68842296 30 30 C28.1670889 28.92681681 28.1670889 28.92681681 26 28 C20.10340641 24.32017092 14.50843599 20.23264019 9 16 C9.33 15.34 9.66 14.68 10 14 C9.67 13.01 9.34 12.02 9 11 C8.34 11 7.68 11 7 11 C5.2734375 9.1015625 5.2734375 9.1015625 3.375 6.625 C2.42753906 5.40683594 2.42753906 5.40683594 1.4609375 4.1640625 C0 2 0 2 0 0 Z " fill="#5E5A5F" transform="translate(92,109)"/>
<path d="M0 0 C2.28491702 2.28491702 2.30960167 2.88160469 2.640625 5.97265625 C2.78709473 7.18610718 2.78709473 7.18610718 2.93652344 8.42407227 C3.0399707 9.29475342 3.14341797 10.16543457 3.25 11.0625 C5.21186763 25.50720579 9.35163797 38.15327923 18 50 C17.34 50.66 16.68 51.32 16 52 C10.66368866 49.5915763 8.85045218 45.93459939 6.3125 40.9375 C5.91820801 40.17614746 5.52391602 39.41479492 5.11767578 38.63037109 C2.46019246 33.33228808 0.07511407 28.03416379 0 22 C0.495 20.515 0.495 20.515 1 19 C1.21803307 17.44146733 1.40366356 15.87817349 1.5625 14.3125 C1.68818359 13.10013672 1.68818359 13.10013672 1.81640625 11.86328125 C1.90728516 10.94095703 1.90728516 10.94095703 2 10 C1.34 10 0.68 10 0 10 C0 6.7 0 3.4 0 0 Z " fill="#808D78" transform="translate(45,116)"/>
<path d="M0 0 C1.010625 -0.02578125 2.02125 -0.0515625 3.0625 -0.078125 C7.26241531 0.39101448 9.86100935 2.11100935 12.8125 5.0625 C14.46290867 8.1027265 14.54728027 9.82949832 14 13.25 C11.63009426 16.94426482 10.14980073 18.87455486 5.9375 20.25 C2.93834667 20.25 1.48149025 19.87251286 -1 18.25 C-0.67 16.93 -0.34 15.61 0 14.25 C2.64 14.25 5.28 14.25 8 14.25 C8.76956136 11.90466049 8.76956136 11.90466049 9 9.25 C7.91666667 7.33333333 7.91666667 7.33333333 6 6.25 C4.68 6.25 3.36 6.25 2 6.25 C2 5.59 2 4.93 2 4.25 C1.34 3.92 0.68 3.59 0 3.25 C-0.33 3.91 -0.66 4.57 -1 5.25 C-1.66 4.59 -2.32 3.93 -3 3.25 C-5.65537372 2.68479997 -8.29144713 2.51211802 -11 2.25 C-11 1.92 -11 1.59 -11 1.25 C-7.29565303 0.40562679 -3.79806243 0.05813361 0 0 Z " fill="#676E61" transform="translate(102,132.75)"/>
<path d="M0 0 C5.43111817 0.67888977 7.71315147 2.37495264 11.1875 6.625 C12.48966479 8.39402619 13.76298706 10.18481797 15 12 C15.44859375 12.65355469 15.8971875 13.30710937 16.359375 13.98046875 C19.75548913 19.75140182 20.25340449 26.40303655 20 33 C19.0078125 35.89453125 19.0078125 35.89453125 18 38 C17.34 38 16.68 38 16 38 C15.855625 37.030625 15.71125 36.06125 15.5625 35.0625 C15.46582031 34.42054688 15.36914062 33.77859375 15.26953125 33.1171875 C15 31 15 31 14.88671875 28.8828125 C14.35084496 20.27821045 10.51812888 13.50350904 5 7 C4.67 6.01 4.34 5.02 4 4 C2.70644173 2.62804426 1.37701298 1.28817344 0 0 Z " fill="#545154" transform="translate(131,110)"/>
<path d="M0 0 C0.33 0 0.66 0 1 0 C0.938125 1.010625 0.87625 2.02125 0.8125 3.0625 C1.04082037 7.85722775 1.94046152 11.97983143 5.43041992 15.40307617 C7.13763504 16.70865327 8.88239196 17.89625442 10.6875 19.0625 C11.94433183 19.91749648 13.20084376 20.77296338 14.45703125 21.62890625 C15.06369629 22.03383301 15.67036133 22.43875977 16.29541016 22.85595703 C18.52667325 24.35347907 20.70911576 25.90961104 22.875 27.5 C23.49117187 27.9434375 24.10734375 28.386875 24.7421875 28.84375 C25.15726563 29.2253125 25.57234375 29.606875 26 30 C26 30.66 26 31.32 26 32 C25.01 32 24.02 32 23 32 C23.99 32.66 24.98 33.32 26 34 C26 34.66 26 35.32 26 36 C25.34 36 24.68 36 24 36 C24 35.34 24 34.68 24 34 C23.30519531 33.76667969 22.61039063 33.53335938 21.89453125 33.29296875 C18.43553603 31.74785752 15.63621619 29.64755269 12.6875 27.3125 C12.1193457 26.86769287 11.55119141 26.42288574 10.96582031 25.96459961 C-1.66232135 16.01303596 -1.66232135 16.01303596 -3 12 C-2.34 12 -1.68 12 -1 12 C0.7143618 13.95927063 2.38405168 15.95880212 4 18 C0.44830754 13.64631247 -1.14118618 11.56219638 -1.125 5.9375 C-1.12757812 5.03902344 -1.13015625 4.14054687 -1.1328125 3.21484375 C-1 1 -1 1 0 0 Z " fill="#676367" transform="translate(110,80)"/>
<path d="M0 0 C3.3125 0.9375 3.3125 0.9375 5.3125 2.9375 C5.77626812 10.24184783 5.77626812 10.24184783 3.3125 13.9375 C-1.51238726 14.59543917 -4.52575995 13.31563717 -8.6875 10.9375 C-9.15205163 6.94235594 -8.97432179 5.34600377 -6.625 2 C-3.6875 -0.0625 -3.6875 -0.0625 0 0 Z M-1.6875 4.9375 C-1.6875 6.2575 -1.6875 7.5775 -1.6875 8.9375 C-0.6975 8.6075 0.2925 8.2775 1.3125 7.9375 C0.9825 6.9475 0.6525 5.9575 0.3125 4.9375 C-0.3475 4.9375 -1.0075 4.9375 -1.6875 4.9375 Z " fill="#889B7A" transform="translate(207.6875,147.0625)"/>
<path d="M0 0 C3.5 0.4375 3.5 0.4375 5.4375 1.4375 C7.16149757 4.68267189 7.15498416 7.85741613 6.5 11.4375 C4.9375 13.5 4.9375 13.5 2.5 14.4375 C-1.125 14.3125 -1.125 14.3125 -4.5 13.4375 C-6.82579101 9.94881349 -6.91865457 8.54031481 -6.5 4.4375 C-4.86658084 0.78632776 -4.0205891 0.50257364 0 0 Z M-2.5 5.4375 C-2.17 6.7575 -1.84 8.0775 -1.5 9.4375 C-0.51 9.4375 0.48 9.4375 1.5 9.4375 C1.5 8.1175 1.5 6.7975 1.5 5.4375 C0.18 5.4375 -1.14 5.4375 -2.5 5.4375 Z " fill="#8BA280" transform="translate(36.5,145.5625)"/>
<path d="M0 0 C1.65 0.33 3.3 0.66 5 1 C5 1.66 5 2.32 5 3 C7.31 3.66 9.62 4.32 12 5 C11.38461538 10.53846154 11.38461538 10.53846154 9.4375 12.875 C8.7259375 13.431875 8.7259375 13.431875 8 14 C3.89041233 12.54955729 0.56741255 10.48889248 -3 8 C-2.45276317 4.62537285 -1.9451 2.91765 0 0 Z " fill="#7E936F" transform="translate(194,163)"/>
<path d="M0 0 C0 1.32 0 2.64 0 4 C-0.61488281 3.96519531 -1.22976562 3.93039063 -1.86328125 3.89453125 C-2.67152344 3.86746094 -3.47976562 3.84039062 -4.3125 3.8125 C-5.11300781 3.77769531 -5.91351563 3.74289063 -6.73828125 3.70703125 C-9.47851584 4.06198392 -10.29171079 4.89366282 -12 7 C-12.33 6.67 -12.66 6.34 -13 6 C-12.73606499 9.43230448 -12.73606499 9.43230448 -12 13 C-6.24488073 16.83674618 1.56624874 16.47341494 8.25 15.375 C12.57322718 14.37786857 15.8362314 12.52282347 19.40625 9.92578125 C19.9321875 9.62027344 20.458125 9.31476563 21 9 C21.66 9.33 22.32 9.66 23 10 C21.6312552 10.96724632 20.25464396 11.9233644 18.875 12.875 C17.72644531 13.67550781 17.72644531 13.67550781 16.5546875 14.4921875 C11.18796185 17.65970447 6.14849885 18.36344267 0 18.375 C-0.68578125 18.39949219 -1.3715625 18.42398438 -2.078125 18.44921875 C-7.19674077 18.4785238 -10.07309765 17.22053882 -14 14 C-15.53214888 10.93570224 -15.22938548 8.3834358 -15 5 C-13.72833274 2.13874867 -12.67507529 0.51212609 -10.1875 -1.375 C-6.57486411 -2.40718168 -3.31861235 -1.65930617 0 0 Z " fill="#6D706A" transform="translate(135,83)"/>
<path d="M0 0 C4.00496576 0.61092698 4.39654701 0.83323048 6.6875 3.875 C7.9375 5.73828125 7.9375 5.73828125 8.6875 7.5625 C8.3575 8.5525 8.0275 9.5425 7.6875 10.5625 C6.0375 10.5625 4.3875 10.5625 2.6875 10.5625 C2.3575 11.8825 2.0275 13.2025 1.6875 14.5625 C-2.52219919 13.05903601 -4.23110139 10.41694186 -6.3125 6.5625 C-6.07048276 2.20618965 -4.26244209 0.72381092 0 0 Z " fill="#849C74" transform="translate(174.3125,187.4375)"/>
<path d="M0 0 C13.40950326 4.75657852 25.87376398 14.76983818 33 27 C33.95399952 29.37655633 34.50629352 31.47661132 35 34 C34.34 34 33.68 34 33 34 C32.64808594 33.21496094 32.29617187 32.42992187 31.93359375 31.62109375 C28.78899417 24.92958289 25.68340648 19.77540663 20 15 C20.639375 15.7425 21.27875 16.485 21.9375 17.25 C23.84096596 19.78795462 24.39464941 21.01785181 25 24 C24.01 23.13375 23.02 22.2675 22 21.375 C18.63858419 18.47414628 15.12997225 15.856451 11.50390625 13.296875 C11.00761719 12.86890625 10.51132813 12.4409375 10 12 C10 11.34 10 10.68 10 10 C10.99 10 11.98 10 13 10 C12.14535156 9.52949219 11.29070312 9.05898437 10.41015625 8.57421875 C9.30542969 7.95160156 8.20070313 7.32898438 7.0625 6.6875 C5.96035156 6.07261719 4.85820313 5.45773438 3.72265625 4.82421875 C1 3 1 3 0 0 Z " fill="#756C77" transform="translate(109,108)"/>
<path d="M0 0 C0.33 0.66 0.66 1.32 1 2 C0.360625 3.051875 -0.27875 4.10375 -0.9375 5.1875 C-3.9167352 10.16663702 -3.32206974 14.2139769 -2.3125 19.8125 C-1.33894638 23.10323704 -1.33894638 23.10323704 1.1875 24.25 C2.115625 24.4975 3.04375 24.745 4 25 C5.27784072 25.52492212 6.54863708 26.06726292 7.8125 26.625 C8.864375 27.07875 9.91625 27.5325 11 28 C10.67 28.99 10.34 29.98 10 31 C5.17639811 31.19294408 1.50353262 30.75747614 -3 29 C-2.34 27.68 -1.68 26.36 -1 25 C-1.99 24.67 -2.98 24.34 -4 24 C-5.64364621 16.78621941 -5.56366008 9.23192788 -4 2 C-4.556875 2.33 -5.11375 2.66 -5.6875 3 C-8.30284522 4.1309601 -10.1806646 4.15662974 -13 4 C-9.21303116 -0.35501417 -5.55636855 -0.1262811 0 0 Z " fill="#5C9947" transform="translate(100,136)"/>
<path d="M0 0 C2.38536438 4.17438766 3.6445541 7.16584428 3 12 C1.9375 13.9375 1.9375 13.9375 0 15 C-3.4375 15.125 -3.4375 15.125 -7 14 C-9.03402257 11.74125539 -9.80501693 9.88787576 -11 7 C-10.67 6.01 -10.34 5.02 -10 4 C-8.68 4 -7.36 4 -6 4 C-5.34 5.98 -4.68 7.96 -4 10 C-3.34 10 -2.68 10 -2 10 C-2.33 9.2575 -2.66 8.515 -3 7.75 C-4 5 -4 5 -4 1 C-2 0 -2 0 0 0 Z " fill="#96A985" transform="translate(163,195)"/>
<path d="M0 0 C0.99 0.66 1.98 1.32 3 2 C2.60196439 4.88575819 2.20990931 5.82189513 -0.0625 7.75 C-1.0215625 8.36875 -1.0215625 8.36875 -2 9 C-1.01 9.33 -0.02 9.66 1 10 C1.33 9.01 1.66 8.02 2 7 C3.32 7 4.64 7 6 7 C6.33 8.32 6.66 9.64 7 11 C3.52563855 13.79643726 1.78513624 15.0130856 -2.75 14.9375 C-6 14 -6 14 -8 11 C-8.0625 8.6875 -8.0625 8.6875 -7 6 C-4.82191355 3.79064915 -2.46825791 1.87536045 0 0 Z " fill="#7D916F" transform="translate(46,161)"/>
<path d="M0 0 C0.99 0.33 1.98 0.66 3 1 C3 1.99 3 2.98 3 4 C5.475 4.99 5.475 4.99 8 6 C7.67 6.99 7.34 7.98 7 9 C5.35 9.33 3.7 9.66 2 10 C1.67 11.98 1.34 13.96 1 16 C0.01 16 -0.98 16 -2 16 C-2.33 14.02 -2.66 12.04 -3 10 C-4.32 10 -5.64 10 -7 10 C-6.49396008 7.83125748 -6.00016187 6.00032373 -5 4 C-4.34 4 -3.68 4 -3 4 C-2.67 3.01 -2.34 2.02 -2 1 C-1.34 0.67 -0.68 0.34 0 0 Z " fill="#8CA481" transform="translate(56,176)"/>
<path d="M0 0 C18.53017757 1.29280309 37.21243504 14.348447 49.765625 27.4609375 C51.38819864 29.48401982 52.31949841 31.5048275 53 34 C49.41284945 30.99850669 45.97053598 28.01708995 42.75 24.625 C30.87438496 12.69683799 15.99477261 6.34259425 0 2 C0 1.34 0 0.68 0 0 Z " fill="#AAC697" transform="translate(142,28)"/>
<path d="M0 0 C0.99 0.33 1.98 0.66 3 1 C3.6875 3.0625 3.6875 3.0625 4 5 C5.65 5 7.3 5 9 5 C8.46884894 9.51478398 6.63379708 12.34666857 4 16 C2.68 15.67 1.36 15.34 0 15 C0.33 13.35 0.66 11.7 1 10 C-0.65 10.66 -2.3 11.32 -4 12 C-5.39864092 8.82127065 -4.89282517 7.69888978 -3.6875 4.3125 C-2 1 -2 1 0 0 Z " fill="#87A079" transform="translate(68,187)"/>
<path d="M0 0 C1.9375 0.625 1.9375 0.625 4 2 C4.9375 4.9375 4.9375 4.9375 5 8 C3.75 9.875 3.75 9.875 2 11 C1.01 11 0.02 11 -1 11 C-2.2375 11.3403125 -2.2375 11.3403125 -3.5 11.6875 C-6 12 -6 12 -7.875 11 C-9.62020832 7.89740743 -8.69997967 5.3726293 -8 2 C-7.4225 2.226875 -6.845 2.45375 -6.25 2.6875 C-3.87827523 3.26505193 -3.87827523 3.26505193 -1.75 1.5625 C-1.1725 1.046875 -0.595 0.53125 0 0 Z " fill="#899F7E" transform="translate(34,130)"/>
<path d="M0 0 C0.99 0.33 1.98 0.66 3 1 C1.02 1.99 1.02 1.99 -1 3 C-0.28972656 3.04898438 0.42054687 3.09796875 1.15234375 3.1484375 C2.53099609 3.26058594 2.53099609 3.26058594 3.9375 3.375 C5.31228516 3.47941406 5.31228516 3.47941406 6.71484375 3.5859375 C7.84599609 3.79089844 7.84599609 3.79089844 9 4 C9.33 4.66 9.66 5.32 10 6 C5.71 6 1.42 6 -3 6 C-3.66 7.32 -4.32 8.64 -5 10 C-7.0625 12.25 -7.0625 12.25 -9 14 C-9.33 14 -9.66 14 -10 14 C-10.64409104 19.82067461 -10.65125033 23.84237633 -7 28.625 C-6.02266687 29.76974668 -5.03007943 30.90247489 -4 32 C-6.84223197 30.63760782 -8.96027641 29.44766831 -11 27 C-11 26.34 -11 25.68 -11 25 C-11.66 25 -12.32 25 -13 25 C-14.85739436 21.28521128 -14.47500843 17.55668523 -13.28125 13.64453125 C-11.33613716 8.83665154 -9.84724967 6.24628643 -5 4 C-4.13375 3.2575 -3.2675 2.515 -2.375 1.75 C-1.59125 1.1725 -0.8075 0.595 0 0 Z " fill="#585458" transform="translate(120,67)"/>
<path d="M0 0 C0 3.30513486 -0.36219519 5.81097595 -1 9 C-1 10.32 -1 11.64 -1 13 C-5.55985915 13.36971831 -5.55985915 13.36971831 -7.5625 11.6875 C-8.036875 11.130625 -8.51125 10.57375 -9 10 C-10.31963709 8.98199424 -11.65009646 7.97751635 -13 7 C-12.67 5.35 -12.34 3.7 -12 2 C-7.8803623 0.70756464 -4.33168317 -0.26252625 0 0 Z " fill="#93AD87" transform="translate(218,131)"/>
<path d="M0 0 C0.66 0 1.32 0 2 0 C1.83242188 0.69867188 1.66484375 1.39734375 1.4921875 2.1171875 C1.28851563 3.02726562 1.08484375 3.93734375 0.875 4.875 C0.66617188 5.77992187 0.45734375 6.68484375 0.2421875 7.6171875 C0.16226563 8.40351562 0.08234375 9.18984375 0 10 C0.66 10.66 1.32 11.32 2 12 C1.828125 14.78515625 1.828125 14.78515625 1.25 18.0625 C1.06953125 19.14660156 0.8890625 20.23070313 0.703125 21.34765625 C0.47109375 22.22292969 0.2390625 23.09820312 0 24 C-0.66 24.33 -1.32 24.66 -2 25 C-2.46523063 26.89533342 -2.46523063 26.89533342 -2.625 29.0625 C-2.74875 30.361875 -2.8725 31.66125 -3 33 C-2.34 33 -1.68 33 -1 33 C-1 37.29 -1 41.58 -1 46 C-4 43 -4 43 -4.37231445 40.43139648 C-4.3693335 39.42149658 -4.36635254 38.41159668 -4.36328125 37.37109375 C-4.36231445 35.69370117 -4.36231445 35.69370117 -4.36132812 33.98242188 C-4.34521484 32.81259766 -4.32910156 31.64277344 -4.3125 30.4375 C-4.31572266 29.29474609 -4.31894531 28.15199219 -4.32226562 26.97460938 C-4.26284604 17.52689496 -2.74033797 9.00396763 0 0 Z " fill="#9CAA95" transform="translate(48,93)"/>
<path d="M0 0 C0.33 0.99 0.66 1.98 1 3 C0.01 3.33 -0.98 3.66 -2 4 C-2.6837045 5.32467746 -3.34964186 6.65863633 -4 8 C-4.99 8.66 -5.98 9.32 -7 10 C-6.34 10.66 -5.68 11.32 -5 12 C-17.55734812 20.74803063 -17.55734812 20.74803063 -22.8125 20 C-23.864375 19.67 -24.91625 19.34 -26 19 C-23.32916821 15.8776247 -19.93750488 14.22007234 -16.375 12.3125 C-10.19215724 8.9105725 -5.02290286 4.99632665 0 0 Z " fill="#939E7E" transform="translate(172,172)"/>
<path d="M0 0 C1.875 0.625 1.875 0.625 4 2 C5.85415258 6.07913567 6.21177017 9.5528265 6 14 C2.41936487 14 0.52512014 13.65592475 -2.75 12.5 C-3.54921875 12.2215625 -4.3484375 11.943125 -5.171875 11.65625 C-6.07679688 11.33140625 -6.07679688 11.33140625 -7 11 C-7 9.68 -7 8.36 -7 7 C-5.02 6.67 -3.04 6.34 -1 6 C-1.020625 5.195625 -1.04125 4.39125 -1.0625 3.5625 C-1 1 -1 1 0 0 Z " fill="#96AD85" transform="translate(187,174)"/>
<path d="M0 0 C0.33 0.66 0.66 1.32 1 2 C0.11500755 3.93115902 -0.85909389 5.8218844 -1.875 7.6875 C-4.25115042 12.29231565 -5.53649717 15.80876826 -6 21 C-6.92482672 25.0194392 -7.95813279 29.009452 -9 33 C-9.99 33 -10.98 33 -12 33 C-12.33 39.27 -12.66 45.54 -13 52 C-13.66 52 -14.32 52 -15 52 C-14.46118152 33.49158524 -10.73177832 15.42693134 0 0 Z " fill="#658953" transform="translate(40,69)"/>
<path d="M0 0 C0.33 0.99 0.66 1.98 1 3 C-0.32 3 -1.64 3 -3 3 C-2.67 4.98 -2.34 6.96 -2 9 C-1.34 9 -0.68 9 0 9 C2.04169485 11.90548882 3 13.40142046 3 17 C5.97 17.33 8.94 17.66 12 18 C8.64672361 20.23551759 8.09256343 20.17283528 4.3125 19.625 C3.50425781 19.51414062 2.69601563 19.40328125 1.86328125 19.2890625 C1.24839844 19.19367187 0.63351563 19.09828125 0 19 C-0.103125 18.360625 -0.20625 17.72125 -0.3125 17.0625 C-0.6528125 16.0415625 -0.6528125 16.0415625 -1 15 C-1.99 14.67 -2.98 14.34 -4 14 C-7.67518848 9.64422106 -7.31739475 5.39571068 -7 0 C-4.3333581 -1.33332095 -2.83319697 -0.67102033 0 0 Z " fill="#7BA267" transform="translate(114,17)"/>
<path d="M0 0 C0.99 0 1.98 0 3 0 C3.12375 1.093125 3.2475 2.18625 3.375 3.3125 C3.75464801 7.07381802 3.75464801 7.07381802 6 10 C6.69258229 11.99117408 7.35747635 13.9921136 8 16 C8.6599679 17.66933058 9.32558869 19.3364521 10 21 C10.33 21.99 10.66 22.98 11 24 C11.99 24.33 12.98 24.66 14 25 C14 25.66 14 26.32 14 27 C14.66 27 15.32 27 16 27 C16 27.66 16 28.32 16 29 C16.99 29.33 17.98 29.66 19 30 C18.67 30.66 18.34 31.32 18 32 C9.55976174 27.90776327 4.30946845 19.42725086 0.75 11.0625 C-0.18746925 7.23450058 -0.13568492 3.93486278 0 0 Z " fill="#424045" transform="translate(85,93)"/>
<path d="M0 0 C1.32 0 2.64 0 4 0 C5.45184478 4.53701494 6.23509196 8.18061476 6 13 C5.01 13 4.02 13 3 13 C2.34 12.34 1.68 11.68 1 11 C-2.59679066 11.32326553 -2.59679066 11.32326553 -6 12 C-5.43958106 7.23643901 -3.41302403 3.41302403 0 0 Z " fill="#7C926F" transform="translate(99,203)"/>
<path d="M0 0 C1.75 0.0625 1.75 0.0625 4 1 C6.86059344 4.67238347 8 7.29553866 8 12 C4 12 0 12 -4 12 C-3.5317879 7.22423661 -2.75668002 3.95523655 0 0 Z " fill="#7E9671" transform="translate(126,205)"/>
<path d="M0 0 C5.82999196 -0.49406712 9.71586837 0.09500756 15.125 2.375 C22.36851319 5.40098835 29.23162728 6.28010931 37 7 C35.76580625 13.75378248 33.72357667 17.97802721 28 22 C28.3125 20.125 28.3125 20.125 29 18 C29.99 17.34 30.98 16.68 32 16 C33.2188121 12.44327821 33.2188121 12.44327821 34 9 C32.783125 9.04125 31.56625 9.0825 30.3125 9.125 C26.72448287 9.13130583 24.29424697 8.47374207 21 7 C19.0075675 6.62406934 17.0081326 6.28020455 15 6 C15 5.34 15 4.68 15 4 C13.72125 3.855625 12.4425 3.71125 11.125 3.5625 C8.74307106 3.29357254 7.15547309 3.07773654 5 2 C4.67 2.66 4.34 3.32 4 4 C2.68 3.67 1.36 3.34 0 3 C0 2.01 0 1.02 0 0 Z " fill="#5C9946" transform="translate(128,67)"/>
<path d="M0 0 C1.32 0.33 2.64 0.66 4 1 C3.34 1 2.68 1 2 1 C1.71125 1.598125 1.4225 2.19625 1.125 2.8125 C0 5 0 5 -2 8 C-2.61062414 12.23471807 -2.41712578 15.96816254 -0.8125 19.9375 C1.28197778 22.32087126 2.98511576 23.10368306 6 24 C6 24.66 6 25.32 6 26 C9.3 26 12.6 26 16 26 C12.10110853 28.59926098 10.01425268 28.10933562 5.5078125 27.53125 C1.87055482 26.76074059 -0.27678881 25.52395183 -3 23 C-5.68705259 18.25287376 -6.67801883 14.42415066 -6 9 C-4.8574693 6.4725836 -3.52532374 4.33565197 -2 2 C-1.34 2 -0.68 2 0 2 C0 1.34 0 0.68 0 0 Z " fill="#506847" transform="translate(102,136)"/>
<path d="M0 0 C0.98484375 0.01804688 1.9696875 0.03609375 2.984375 0.0546875 C4.10585937 0.08949219 4.10585937 0.08949219 5.25 0.125 C5.25 0.455 5.25 0.785 5.25 1.125 C4.54875 1.28355469 3.8475 1.44210938 3.125 1.60546875 C-6.95277277 4.08383406 -13.029982 7.04698171 -18.5234375 16.0390625 C-18.92820312 16.72742188 -19.33296875 17.41578125 -19.75 18.125 C-20.41 19.115 -21.07 20.105 -21.75 21.125 C-21.91699232 24.25021833 -21.91699232 24.25021833 -21.75 27.125 C-23.73 28.115 -23.73 28.115 -25.75 29.125 C-25.60006363 19.97888172 -21.9689433 13.50862325 -15.6484375 6.94140625 C-10.55868802 2.35681917 -7.02146062 -0.16717763 0 0 Z " fill="#506841" transform="translate(93.75,134.875)"/>
<path d="M0 0 C12.29001339 11.41520341 18.1208831 28.93141516 21 45 C21.18949219 46.00546875 21.37898438 47.0109375 21.57421875 48.046875 C22.00537139 51.0372548 22.09931295 53.85633783 22.0625 56.875 C22.05347656 57.84179688 22.04445312 58.80859375 22.03515625 59.8046875 C22.02355469 60.52914062 22.01195312 61.25359375 22 62 C19.58295001 58.37442502 19.44601796 55.27476729 19.0625 51.0625 C17.36079878 35.00067998 12.54079223 21.44439642 3.76953125 7.91015625 C2.18906704 5.31093807 1.02530972 2.85509321 0 0 Z " fill="#7EA163" transform="translate(195,61)"/>
<path d="M0 0 C0.66 0.33 1.32 0.66 2 1 C1.57847656 1.48210937 1.15695313 1.96421875 0.72265625 2.4609375 C0.17480469 3.09257812 -0.37304688 3.72421875 -0.9375 4.375 C-1.48277344 5.00148437 -2.02804688 5.62796875 -2.58984375 6.2734375 C-4.06958624 7.95632334 -4.06958624 7.95632334 -5 10 C-5.66 10 -6.32 10 -7 10 C-7.99 12.97 -8.98 15.94 -10 19 C-9.27554688 18.96519531 -8.55109375 18.93039063 -7.8046875 18.89453125 C-2.06001832 18.73368051 2.01322966 18.76533816 7 22 C6.67 22.66 6.34 23.32 6 24 C5.40832031 23.7834375 4.81664063 23.566875 4.20703125 23.34375 C-1.73660902 21.22239206 -1.73660902 21.22239206 -8 21 C-8 21.33 -8 21.66 -8 22 C-9.66611905 22.042721 -11.33382885 22.04063832 -13 22 C-14 21 -14 21 -14.234375 18.71875 C-13.95869002 15.52080424 -13.09731927 14.09722115 -11.25 11.5 C-10.42628906 10.33791016 -10.42628906 10.33791016 -9.5859375 9.15234375 C-9.06257813 8.44207031 -8.53921875 7.73179687 -8 7 C-7.29875 6.030625 -6.5975 5.06125 -5.875 4.0625 C-3.99355476 1.99291023 -2.64765246 0.88255082 0 0 Z " fill="#5D9B45" transform="translate(85,140)"/>
<path d="M0 0 C1.65 0.33 3.3 0.66 5 1 C4.34 4.96 3.68 8.92 3 13 C1.68 13 0.36 13 -1 13 C-2.5625 10.625 -2.5625 10.625 -4 8 C-4.99 7.34 -5.98 6.68 -7 6 C-7 4.68 -7 3.36 -7 2 C-5.02 2 -3.04 2 -1 2 C-0.67 1.34 -0.34 0.68 0 0 Z " fill="#839975" transform="translate(144,202)"/>
<path d="M0 0 C1.32 0.66 2.64 1.32 4 2 C4 2.66 4 3.32 4 4 C5.65 3.67 7.3 3.34 9 3 C9.33 4.32 9.66 5.64 10 7 C8.73742767 8.17560179 7.46462916 9.34022865 6.1875 10.5 C5.47980469 11.1496875 4.77210937 11.799375 4.04296875 12.46875 C2 14 2 14 -1 14 C-1.02685938 11.85423363 -1.04633088 9.70837355 -1.0625 7.5625 C-1.07410156 6.36753906 -1.08570312 5.17257813 -1.09765625 3.94140625 C-1 1 -1 1 0 0 Z " fill="#8DA281" transform="translate(82,196)"/>
<path d="M0 0 C6.68993219 0.53951066 12.63460728 1.88706171 19 4 C19.33 3.34 19.66 2.68 20 2 C23.3 3.65 26.6 5.3 30 7 C30 7.99 30 8.98 30 10 C31.94009522 11.70532323 31.94009522 11.70532323 34 13 C33.67 13.66 33.34 14.32 33 15 C32.39414063 14.61328125 31.78828125 14.2265625 31.1640625 13.828125 C21.14460914 7.60064937 11.5356924 4.38669498 0 2 C0 1.34 0 0.68 0 0 Z " fill="#AAB7A2" transform="translate(130,47)"/>
<path d="M0 0 C0 0.66 0 1.32 0 2 C-0.99 2 -1.98 2 -3 2 C-3.33 4.97 -3.66 7.94 -4 11 C-3.64950425 7.75791433 -3.43778819 6.38472296 -0.9375 4.1875 C-0.298125 3.795625 0.34125 3.40375 1 3 C1.57934159 8.40718817 1.34220083 11.10649656 -2 15.5 C-2.98191175 16.68193081 -3.97612198 17.85423174 -5 19 C-7.02558881 15.65060119 -7.21738987 13.13037449 -7.125 9.25 C-7.09792969 7.77273437 -7.09792969 7.77273437 -7.0703125 6.265625 C-7.04710938 5.51796875 -7.02390625 4.7703125 -7 4 C-7.66 4 -8.32 4 -9 4 C-9 3.34 -9 2.68 -9 2 C-2.25 0 -2.25 0 0 0 Z " fill="#71965B" transform="translate(134,14)"/>
<path d="M0 0 C0 0.66 0 1.32 0 2 C-6.24833698 7.53829868 -13.56602753 9.94921521 -21.92578125 10.02734375 C-28.49557783 9.50442217 -28.49557783 9.50442217 -31 7 C-29.7625 6.7525 -28.525 6.505 -27.25 6.25 C-23.48560327 5.3289242 -21.46922107 4.08652634 -19 1 C-19.33 2.65 -19.66 4.3 -20 6 C-19.34 6 -18.68 6 -18 6 C-18 6.66 -18 7.32 -18 8 C-16.9171875 7.505 -16.9171875 7.505 -15.8125 7 C-12.98302573 5.99396471 -10.97104534 5.83022598 -8 6 C-8 5.34 -8 4.68 -8 4 C-5.17157511 0.56548406 -4.64779334 0 0 0 Z " fill="#619C49" transform="translate(156,89)"/>
<path d="M0 0 C0.33 0.66 0.66 1.32 1 2 C-1.01476001 5.94892962 -3.36243404 9.5412961 -5.875 13.1875 C-9.4825193 18.5067504 -12.23676378 24.20896239 -15 30 C-15.66 30 -16.32 30 -17 30 C-15.44554621 24.9397568 -13.84053424 20.49751254 -11 16 C-10.608125 14.9275 -10.21625 13.855 -9.8125 12.75 C-7.74627719 7.66304928 -3.73886389 3.91648212 0 0 Z " fill="#6F905B" transform="translate(51,55)"/>
<path d="M0 0 C0.99 0 1.98 0 3 0 C2.67 3.3 2.34 6.6 2 10 C1.01 10 0.02 10 -1 10 C-1 13.63 -1 17.26 -1 21 C-1.66 21.33 -2.32 21.66 -3 22 C-3.12375 21.0925 -3.2475 20.185 -3.375 19.25 C-3.76095827 16.10025956 -3.76095827 16.10025956 -5.21875 14.1875 C-6 12 -6 12 -4.8828125 8.984375 C-4.01269531 7.38335937 -4.01269531 7.38335937 -3.125 5.75 C-2.55007812 4.67234375 -1.97515625 3.5946875 -1.3828125 2.484375 C-0.92648438 1.66453125 -0.47015625 0.8446875 0 0 Z " fill="#575157" transform="translate(91,79)"/>
<path d="M0 0 C0.99 0 1.98 0 3 0 C5.68735741 3.43248833 7.80336078 7.23877341 10 11 C10.3815625 11.64710937 10.763125 12.29421875 11.15625 12.9609375 C12 14.5 12 14.5 13 17 C12 20 12 20 10 22 C8.99515796 20.04414675 7.99626195 18.08523763 7 16.125 C6.443125 15.03445312 5.88625 13.94390625 5.3125 12.8203125 C4 10 4 10 4 8 C3.34 7.01 2.68 6.02 2 5 C0 2 0 2 0 0 Z " fill="#95A38D" transform="translate(179,73)"/>
<path d="M0 0 C1.5625 1 1.5625 1 3 3 C3.15737322 6.59710216 2.70374077 9.85179138 0.8125 12.9375 C-1.80464439 14.47168809 -3.983488 14.81531559 -7 15 C-9.375 14.0625 -9.375 14.0625 -11 13 C-10.67 11.68 -10.34 10.36 -10 9 C-7.36 9 -4.72 9 -2 9 C-1.67 8.34 -1.34 7.68 -1 7 C-0.34 7 0.32 7 1 7 C0.67 4.69 0.34 2.38 0 0 Z " fill="#575358" transform="translate(112,138)"/>
<path d="M0 0 C0 0.99 0 1.98 0 3 C-3.40266059 5.26844039 -6.0092118 5.80189993 -10 6.625 C-11.2375 6.88539063 -12.475 7.14578125 -13.75 7.4140625 C-17 8 -17 8 -20 8 C-19.67 7.01 -19.34 6.02 -19 5 C-17.0625 4.4375 -17.0625 4.4375 -15 4 C-14.34 3.34 -13.68 2.68 -13 2 C-8.5330667 0.45375386 -4.72039536 -0.23026319 0 0 Z " fill="#8A9A77" transform="translate(151,190)"/>
<path d="M0 0 C0.66 0.33 1.32 0.66 2 1 C1.21496094 1.56847656 0.42992188 2.13695312 -0.37890625 2.72265625 C-5.86678601 6.75607954 -11.08779053 10.73063588 -15.6953125 15.78515625 C-17 17 -17 17 -19 17 C-17.83582138 10.34755077 -13.20698908 6.80679034 -8 3 C-4.5625 1.5625 -4.5625 1.5625 -2 1 C-1.34 0.67 -0.68 0.34 0 0 Z " fill="#719860" transform="translate(71,38)"/>
<path d="M0 0 C1.65 0.33 3.3 0.66 5 1 C4.66226563 1.71285156 4.32453125 2.42570312 3.9765625 3.16015625 C0.99810782 9.45318877 0.99810782 9.45318877 -1.125 16.0625 C-2 19 -2 19 -5 21 C-4.46698301 16.91353638 -3.82457756 12.86291224 -3.0625 8.8125 C-2.90910156 7.99394531 -2.75570312 7.17539063 -2.59765625 6.33203125 C-2.00035626 4.0013901 -1.15534994 2.10283357 0 0 Z " fill="#97A38B" transform="translate(52,85)"/>
<path d="M0 0 C6.85363496 3.09615965 11.18026885 8.52775909 14.37109375 15.203125 C15 17 15 17 15 20 C15.66 20 16.32 20 17 20 C16.88601335 21.62580966 16.75844341 23.25067157 16.625 24.875 C16.55539063 25.77992188 16.48578125 26.68484375 16.4140625 27.6171875 C16 30 16 30 14 32 C14.03480469 31.00419922 14.03480469 31.00419922 14.0703125 29.98828125 C14.23324281 22.01633402 13.01697976 18.23321728 8 12 C7.525625 11.030625 7.05125 10.06125 6.5625 9.0625 C4.75367849 5.51720984 2.62448122 2.97914085 0 0 Z " fill="#585559" transform="translate(127,122)"/>
<path d="M0 0 C0.33 0.99 0.66 1.98 1 3 C1.66 3 2.32 3 3 3 C1.05749129 13.48954704 1.05749129 13.48954704 -2 17 C-4.6875 17.3125 -4.6875 17.3125 -7 17 C-7.33 16.34 -7.66 15.68 -8 15 C-7.195625 14.2575 -6.39125 13.515 -5.5625 12.75 C-3.23011409 10.24695171 -2.36465606 9.2819045 -2 6 C-1.34 6 -0.68 6 0 6 C0 4.02 0 2.04 0 0 Z " fill="#544E54" transform="translate(127,144)"/>
<path d="M0 0 C3.52482355 0.61759729 4.07662514 1.0801081 6.75 3.875 C9.96741896 8.58797762 9.44660819 13.51168152 9 19 C8.34 19 7.68 19 7 19 C6.67 19.99 6.34 20.98 6 22 C4.9495162 18.84854861 5.04879811 17.02410347 5.25 13.75 C5.34387913 7.85126124 3.81292572 5.38486458 0 1 C0 0.67 0 0.34 0 0 Z " fill="#425F33" transform="translate(131,73)"/>
<path d="M0 0 C0 0.66 0 1.32 0 2 C2.97 2.495 2.97 2.495 6 3 C5.34 4.32 4.68 5.64 4 7 C3.25234375 6.91621094 2.5046875 6.83242187 1.734375 6.74609375 C0.74953125 6.64425781 -0.2353125 6.54242188 -1.25 6.4375 C-2.71179688 6.28087891 -2.71179688 6.28087891 -4.203125 6.12109375 C-6.7631352 6.01025532 -8.58148159 6.22261908 -11 7 C-11 6.34 -11 5.68 -11 5 C-8.11788698 4.03929566 -6.30149956 3.89418117 -3.3125 3.9375 C-1.889375 3.958125 -0.46625 3.97875 1 4 C-2.63 3.67 -6.26 3.34 -10 3 C-6.05892841 -0.94107159 -5.22747261 -1.23808562 0 0 Z " fill="#608050" transform="translate(128,68)"/>
<path d="M0 0 C0.99 0.495 0.99 0.495 2 1 C2 1.66 2 2.32 2 3 C2.66 3 3.32 3 4 3 C4.223293 5.06093408 4.42802887 7.1238839 4.625 9.1875 C4.74101562 10.33605469 4.85703125 11.48460937 4.9765625 12.66796875 C5.00023426 16.03330416 4.47419799 18.01221706 3 21 C2.34 21 1.68 21 1 21 C0.67 18.69 0.34 16.38 0 14 C0.33 14 0.66 14 1 14 C1.08333357 9.1666528 0.95261487 4.76307437 0 0 Z " fill="#393738" transform="translate(146,127)"/>
<path d="M0 0 C2.72426311 2.35277269 3.8141763 4.62496331 5 8 C4 9 4 9 0.4375 9.0625 C-0.696875 9.041875 -1.83125 9.02125 -3 9 C-2.67 8.01 -2.34 7.02 -2 6 C-2.99 6.33 -3.98 6.66 -5 7 C-5.33 5.68 -5.66 4.36 -6 3 C-4.68 2.34 -3.36 1.68 -2 1 C-1.67 1.33 -1.34 1.66 -1 2 C-0.67 1.34 -0.34 0.68 0 0 Z " fill="#93AA83" transform="translate(178,189)"/>
<path d="M0 0 C5.77962112 0.53598721 10.66840235 1.70404088 16.0625 3.8125 C16.73087891 4.06064453 17.39925781 4.30878906 18.08789062 4.56445312 C22.67231568 6.31535599 26.79141145 8.47703599 31 11 C28 12 28 12 25.3203125 10.92578125 C24.26585937 10.39339844 23.21140625 9.86101563 22.125 9.3125 C15.58785853 6.15790642 8.99918455 3.94739996 2 2 C1.67 2.66 1.34 3.32 1 4 C0.67 2.68 0.34 1.36 0 0 Z " fill="#73945E" transform="translate(140,26)"/>
<path d="M0 0 C0.66 0.33 1.32 0.66 2 1 C1.03015308 7.06154323 -1.05051204 9.3950584 -5.9296875 13.03125 C-8 14 -8 14 -10.2578125 13.65625 C-11.12019531 13.33140625 -11.12019531 13.33140625 -12 13 C-11.236875 12.401875 -10.47375 11.80375 -9.6875 11.1875 C-5.64295006 8.2100551 -5.64295006 8.2100551 -3.5 3.9375 C-3 2 -3 2 0 0 Z " fill="#8C9981" transform="translate(176,169)"/>
<path d="M0 0 C0.639375 0.66 1.27875 1.32 1.9375 2 C8.17798864 8.22286014 14.84850515 13.85560044 22 19 C21.67 19.66 21.34 20.32 21 21 C13.73843416 17.02669039 13.73843416 17.02669039 11 14 C10.34 13.67 9.68 13.34 9 13 C9 12.34 9 11.68 9 11 C8.34 11 7.68 11 7 11 C5.2734375 9.1015625 5.2734375 9.1015625 3.375 6.625 C2.42753906 5.40683594 2.42753906 5.40683594 1.4609375 4.1640625 C0 2 0 2 0 0 Z " fill="#6D6B74" transform="translate(92,109)"/>
<path d="M0 0 C0 0.66 0 1.32 0 2 C-1.32 2.33 -2.64 2.66 -4 3 C-3.34 3.33 -2.68 3.66 -2 4 C-2 5.32 -2 6.64 -2 8 C-2.66 8 -3.32 8 -4 8 C-4 8.66 -4 9.32 -4 10 C-6.4375 9.25 -6.4375 9.25 -9 8 C-9.875 6 -9.875 6 -10 4 C-9.67 3.34 -9.34 2.68 -9 2 C-2.88888889 0 -2.88888889 0 0 0 Z " fill="#9EB98B" transform="translate(215,131)"/>
<path d="M0 0 C0.66 0 1.32 0 2 0 C2.18175781 0.58007812 2.36351563 1.16015625 2.55078125 1.7578125 C4.58173878 8.06940358 6.78807274 13.78523291 11 19 C10.67 19.66 10.34 20.32 10 21 C8.51152063 19.76110404 7.03449895 18.5084328 5.5625 17.25 C4.73878906 16.55390625 3.91507812 15.8578125 3.06640625 15.140625 C0.98703549 12.98656985 0.36132674 11.91689219 0 9 C0.66 9 1.32 9 2 9 C1.34 6.03 0.68 3.06 0 0 Z " fill="#5D5A5D" transform="translate(94,87)"/>
<path d="M0 0 C2.76276177 0.52268466 5.3260876 1.10869587 8 2 C9.65497356 5.30994713 9.10084335 8.99123 9.0625 12.625 C9.05798828 13.42679688 9.05347656 14.22859375 9.04882812 15.0546875 C9.03703168 17.03649006 9.01909605 19.01825433 9 21 C8.34 21 7.68 21 7 21 C7.33 22.32 7.66 23.64 8 25 C7.34 25 6.68 25 6 25 C5.67 24.01 5.34 23.02 5 22 C5.33 21.34 5.66 20.68 6 20 C6.66 20 7.32 20 8 20 C7.82234033 11.06856381 6.39118529 6.39118529 0 0 Z " fill="#5E9D45" transform="translate(132,72)"/>
<path d="M0 0 C0.99 0.66 1.98 1.32 3 2 C2.60196439 4.88575819 2.20990931 5.82189513 -0.0625 7.75 C-0.701875 8.1625 -1.34125 8.575 -2 9 C-1.01 9.66 -0.02 10.32 1 11 C-0.65 11.33 -2.3 11.66 -4 12 C-4.625 10.125 -4.625 10.125 -5 8 C-4.34 7.34 -3.68 6.68 -3 6 C-3.66 5.34 -4.32 4.68 -5 4 C-3.35 2.68 -1.7 1.36 0 0 Z " fill="#93A07F" transform="translate(46,161)"/>
<path d="M0 0 C2.97 0.495 2.97 0.495 6 1 C5.67 4.3 5.34 7.6 5 11 C2.03 10.505 2.03 10.505 -1 10 C-0.67 9.34 -0.34 8.68 0 8 C0.99 8 1.98 8 3 8 C3.33 6.02 3.66 4.04 4 2 C3.01 2.495 3.01 2.495 2 3 C1.34786708 5.02463255 1.34786708 5.02463255 1 7 C0.01 6.67 -0.98 6.34 -2 6 C-1.49396008 3.83125748 -1.00016187 2.00032373 0 0 Z " fill="#94AF81" transform="translate(204,150)"/>
<path d="M0 0 C0.95261719 0.48210937 1.90523438 0.96421875 2.88671875 1.4609375 C4.15359159 2.09906604 5.42052171 2.73708086 6.6875 3.375 C7.31333984 3.69210938 7.93917969 4.00921875 8.58398438 4.3359375 C12.00364701 6.05472081 15.42007074 7.64469217 19 9 C17.02 9.99 17.02 9.99 15 11 C15 10.34 15 9.68 15 9 C14.37351562 9.01160156 13.74703125 9.02320313 13.1015625 9.03515625 C12.28429687 9.04417969 11.46703125 9.05320313 10.625 9.0625 C9.81289062 9.07410156 9.00078125 9.08570313 8.1640625 9.09765625 C6 9 6 9 4 8 C4.33 7.01 4.66 6.02 5 5 C3.7625 4.319375 3.7625 4.319375 2.5 3.625 C1.675 3.08875 0.85 2.5525 0 2 C0 1.34 0 0.68 0 0 Z " fill="#94A58B" transform="translate(80,182)"/>
<path d="M0 0 C-2.56775086 2.84286703 -4.18283946 4.43865286 -8 5 C-9.0725 5.185625 -10.145 5.37125 -11.25 5.5625 C-12.1575 5.706875 -13.065 5.85125 -14 6 C-13.67 5.01 -13.34 4.02 -13 3 C-10.9375 2.3125 -10.9375 2.3125 -9 2 C-11.31 1.67 -13.62 1.34 -16 1 C-16 0.67 -16 0.34 -16 0 C-10.39436958 -0.82622671 -5.57710648 -1.06795656 0 0 Z " fill="#5F635B" transform="translate(124,161)"/>
<path d="M0 0 C0.99 0 1.98 0 3 0 C1.75777111 2.58797685 0.41132993 4.93494658 -1.125 7.375 C-3.04816398 10.67287009 -3.37559475 13.15015379 -3 17 C-4.98 17.99 -4.98 17.99 -7 19 C-6.75941268 11.54179322 -4.87215086 5.80537378 0 0 Z " fill="#495C3E" transform="translate(75,145)"/>
<path d="M0 0 C2.475 0.99 2.475 0.99 5 2 C4.01 2.495 4.01 2.495 3 3 C3.77479736 5.99152582 3.77479736 5.99152582 5 9 C5.99 9.33 6.98 9.66 8 10 C5.69 10.33 3.38 10.66 1 11 C-1.30441554 7.54337669 -1.25860135 6.05142119 -1 2 C-0.67 1.34 -0.34 0.68 0 0 Z " fill="#839378" transform="translate(31,148)"/>
<path d="M0 0 C2 1 2 1 3.0625 3.875 C3.371875 4.90625 3.68125 5.9375 4 7 C4.33 7.99 4.66 8.98 5 10 C5.62648438 10.04898438 6.25296875 10.09796875 6.8984375 10.1484375 C8.12433594 10.26058594 8.12433594 10.26058594 9.375 10.375 C10.18710938 10.44460937 10.99921875 10.51421875 11.8359375 10.5859375 C14 11 14 11 16 13 C14.08249714 12.91256669 12.16593335 12.8043811 10.25 12.6875 C9.18265625 12.62949219 8.1153125 12.57148437 7.015625 12.51171875 C3.76221904 11.95965116 2.30496789 11.33208515 0 9 C-1.40963855 2.81927711 -1.40963855 2.81927711 0 0 Z " fill="#535652" transform="translate(122,87)"/>
<path d="M0 0 C8.36284857 0.58345455 17.52280296 3.6102156 24 9 C18.61671112 8.31184495 13.73143827 6.69258365 8.625 4.9375 C7.79355469 4.65583984 6.96210938 4.37417969 6.10546875 4.08398438 C4.06891559 3.39342899 2.03426119 2.69727821 0 2 C0 1.34 0 0.68 0 0 Z " fill="#9DB88A" transform="translate(142,28)"/>
<path d="M0 0 C0.99 0.33 1.98 0.66 3 1 C3 1.99 3 2.98 3 4 C3.66 4.33 4.32 4.66 5 5 C3.9171875 4.8453125 3.9171875 4.8453125 2.8125 4.6875 C-1.11198053 5.12355339 -2.38656469 7.17466453 -5 10 C-5.66 10 -6.32 10 -7 10 C-6.49396008 7.83125748 -6.00016187 6.00032373 -5 4 C-4.34 4 -3.68 4 -3 4 C-2.67 3.01 -2.34 2.02 -2 1 C-1.34 0.67 -0.68 0.34 0 0 Z " fill="#819374" transform="translate(56,176)"/>
<path d="M0 0 C5.0920579 1.83879869 8.09396745 3.34972642 10.75 8.1875 C11.1625 9.115625 11.575 10.04375 12 11 C8.0909364 10.77662494 7.08342012 10.09136489 4.375 7.125 C3.59125 6.09375 2.8075 5.0625 2 4 C1.01709032 2.98319689 0.02665213 1.97261781 -1 1 C-0.67 0.67 -0.34 0.34 0 0 Z " fill="#93A08C" transform="translate(160,55)"/>
<path d="M0 0 C0 3 0 3 -1.64453125 4.859375 C-2.35996094 5.48328125 -3.07539063 6.1071875 -3.8125 6.75 C-4.52019531 7.38421875 -5.22789062 8.0184375 -5.95703125 8.671875 C-6.63121094 9.11015625 -7.30539063 9.5484375 -8 10 C-8.99 9.67 -9.98 9.34 -11 9 C-10.34 7.68 -9.68 6.36 -9 5 C-8.34 5 -7.68 5 -7 5 C-7 4.34 -7 3.68 -7 3 C-4.66785852 1.79371992 -2.50357861 0.8345262 0 0 Z " fill="#514C4F" transform="translate(143,155)"/>
<path d="M0 0 C0.66 0.33 1.32 0.66 2 1 C2 6.61 2 12.22 2 18 C0 17 0 17 -1 14 C-1.09329934 12.35628509 -1.12995144 10.70885323 -1.125 9.0625 C-1.12757813 8.20785156 -1.13015625 7.35320312 -1.1328125 6.47265625 C-1.00930254 4.17319148 -0.64420687 2.20359652 0 0 Z " fill="#90A183" transform="translate(196,111)"/>
<path d="M0 0 C6.05036112 0.31844006 11.33785658 1.91601666 17 4 C17 4.66 17 5.32 17 6 C17.66 6.33 18.32 6.66 19 7 C14.51471135 6.1595613 10.10942057 5.05582308 5.6875 3.9375 C4.94693359 3.75123047 4.20636719 3.56496094 3.44335938 3.37304688 C1.62863559 2.91643895 -0.18571971 2.45836694 -2 2 C-1.34 1.34 -0.68 0.68 0 0 Z " fill="#93A38A" transform="translate(132,45)"/>
<path d="M0 0 C1.32 0.33 2.64 0.66 4 1 C3.34 1 2.68 1 2 1 C1.71125 1.598125 1.4225 2.19625 1.125 2.8125 C0 5 0 5 -2 8 C-2.66 8 -3.32 8 -4 8 C-4.08159574 12.16138263 -3.98248524 15.9472484 -3 20 C-5 19 -5 19 -6 16 C-6.58540622 9.91177526 -5.23443375 6.95272669 -2 2 C-1.34 2 -0.68 2 0 2 C0 1.34 0 0.68 0 0 Z " fill="#445A3C" transform="translate(102,136)"/>
<path d="M0 0 C7.356013 1.0727519 10.51985945 5.34454985 15 11 C14.67 11.99 14.34 12.98 14 14 C13.319375 13.29875 12.63875 12.5975 11.9375 11.875 C6.45685811 6.28618547 6.45685811 6.28618547 0 2 C0 1.34 0 0.68 0 0 Z " fill="#706C71" transform="translate(119,118)"/>
<path d="M0 0 C0.99 0.495 0.99 0.495 2 1 C1.67 4.3 1.34 7.6 1 11 C1.66 11 2.32 11 3 11 C3 15.29 3 19.58 3 24 C0 21 0 21 -0.34057617 18.73168945 C-0.32486572 17.86761475 -0.30915527 17.00354004 -0.29296875 16.11328125 C-0.28330078 15.17548828 -0.27363281 14.23769531 -0.26367188 13.27148438 C-0.23853516 12.29501953 -0.21339844 11.31855469 -0.1875 10.3125 C-0.17396484 9.32443359 -0.16042969 8.33636719 -0.14648438 7.31835938 C-0.11112203 4.87835769 -0.06177033 2.43945281 0 0 Z " fill="#92A08A" transform="translate(44,115)"/>
<path d="M0 0 C0.99 0.33 1.98 0.66 3 1 C2.67 3.31 2.34 5.62 2 8 C2.66 8.33 3.32 8.66 4 9 C3.34 10.65 2.68 12.3 2 14 C1.01 14 0.02 14 -1 14 C-1.02685938 11.85423363 -1.04633088 9.70837355 -1.0625 7.5625 C-1.07410156 6.36753906 -1.08570312 5.17257813 -1.09765625 3.94140625 C-1 1 -1 1 0 0 Z " fill="#7F906D" transform="translate(82,196)"/>
<path d="M0 0 C3.63 1.65 7.26 3.3 11 5 C11 5.99 11 6.98 11 8 C12.94009522 9.70532323 12.94009522 9.70532323 15 11 C14.67 11.66 14.34 12.32 14 13 C12.89326166 12.23286356 11.78972306 11.46110997 10.6875 10.6875 C10.07261719 10.25824219 9.45773438 9.82898437 8.82421875 9.38671875 C7.05333112 8.04054078 5.56979678 6.56979678 4 5 C3.34 4.67 2.68 4.34 2 4 C2 3.34 2 2.68 2 2 C1.34 2 0.68 2 0 2 C0 1.34 0 0.68 0 0 Z " fill="#A0AE99" transform="translate(149,49)"/>
<path d="M0 0 C1.875 0.625 1.875 0.625 4 2 C5.57312411 5.61818544 6 8.02093353 6 12 C5.34 12 4.68 12 4 12 C3.54625 11.030625 3.0925 10.06125 2.625 9.0625 C1.34213779 5.92920418 1.34213779 5.92920418 -1 5 C-0.67 3.35 -0.34 1.7 0 0 Z " fill="#899477" transform="translate(187,174)"/>
<path d="M0 0 C3.34249629 0.59687434 5.46436342 1.73603877 8 4 C8 4.66 8 5.32 8 6 C7.01 6 6.02 6 5 6 C5.99 6.66 6.98 7.32 8 8 C8 8.66 8 9.32 8 10 C7.34 10 6.68 10 6 10 C6 9.34 6 8.68 6 8 C5.2575 7.7525 4.515 7.505 3.75 7.25 C0.79875938 5.90852699 -0.84814974 4.39094474 -3 2 C-2.01 1.67 -1.02 1.34 0 1 C0 0.67 0 0.34 0 0 Z " fill="#6F6C72" transform="translate(128,106)"/>
<path d="M0 0 C0.99 0.33 1.98 0.66 3 1 C1.02 1.99 1.02 1.99 -1 3 C-0.28972656 3.04898438 0.42054687 3.09796875 1.15234375 3.1484375 C2.53099609 3.26058594 2.53099609 3.26058594 3.9375 3.375 C5.31228516 3.47941406 5.31228516 3.47941406 6.71484375 3.5859375 C7.84599609 3.79089844 7.84599609 3.79089844 9 4 C9.33 4.66 9.66 5.32 10 6 C5.71 6 1.42 6 -3 6 C-3.66 7.32 -4.32 8.64 -5 10 C-6 7 -6 7 -5.3125 5 C-3.78584442 2.67366768 -2.41076663 1.38801715 0 0 Z " fill="#516049" transform="translate(120,67)"/>
<path d="M0 0 C-0.33 1.98 -0.66 3.96 -1 6 C-2.32 6.33 -3.64 6.66 -5 7 C-5 6.34 -5 5.68 -5 5 C-5.99 4.67 -6.98 4.34 -8 4 C-7.1875 2.0625 -7.1875 2.0625 -6 0 C-3 -1 -3 -1 0 0 Z " fill="#9FB494" transform="translate(206,168)"/>
<path d="M0 0 C3.34252724 -0.07427838 5.8035914 -0.06546953 9 1 C9.25 8.625 9.25 8.625 7 12 C6.34 12 5.68 12 5 12 C5.33 8.7 5.66 5.4 6 2 C3.03 1.505 3.03 1.505 0 1 C0 0.67 0 0.34 0 0 Z " fill="#819671" transform="translate(204,149)"/>
<path d="M0 0 C2 1 2 1 3.1875 3.0625 C4.30896249 7.11701823 3.82494452 9.87527742 3 14 C2.01 14.495 2.01 14.495 1 15 C-0.00109515 11.68929162 -0.10356134 8.69915231 -0.0625 5.25 C-0.05347656 4.26515625 -0.04445312 3.2803125 -0.03515625 2.265625 C-0.02355469 1.51796875 -0.01195312 0.7703125 0 0 Z " fill="#97A088" transform="translate(193,128)"/>
<path d="M0 0 C1.56902561 3.13805122 0.56136446 6.26618588 0.0625 9.625 C-0.08735352 10.68460938 -0.08735352 10.68460938 -0.24023438 11.765625 C-0.48791959 13.51121607 -0.74323871 15.25572084 -1 17 C-0.34 17 0.32 17 1 17 C1 17.66 1 18.32 1 19 C0.01 19 -0.98 19 -2 19 C-3.96224402 15.07551197 -3.42538262 10.60013112 -2.328125 6.47265625 C-1.59844559 4.29394368 -0.83271312 2.14126232 0 0 Z " fill="#789168" transform="translate(26,104)"/>
<path d="M0 0 C0.99 0 1.98 0 3 0 C3.144375 1.11375 3.28875 2.2275 3.4375 3.375 C3.78372035 6.82142047 3.78372035 6.82142047 5 9 C5.0396713 10.66619446 5.04384447 12.33391013 5 14 C4.01 14 3.02 14 2 14 C0.02905192 9.07262981 -0.1799928 5.21979128 0 0 Z " fill="#383639" transform="translate(85,93)"/>
<path d="M0 0 C0.99 0.33 1.98 0.66 3 1 C1.33248852 4.94139078 -1.22710649 7.7892812 -4 11 C-4.33 10.01 -4.66 9.02 -5 8 C-4.67 7.34 -4.34 6.68 -4 6 C-4.66 5.67 -5.32 5.34 -6 5 C-1.60546875 0.99609375 -1.60546875 0.99609375 0 0 Z " fill="#575159" transform="translate(101,69)"/>
<path d="M0 0 C0.66 0 1.32 0 2 0 C2.12117188 0.71027344 2.24234375 1.42054687 2.3671875 2.15234375 C2.53476563 3.07144531 2.70234375 3.99054687 2.875 4.9375 C3.03742188 5.85402344 3.19984375 6.77054688 3.3671875 7.71484375 C3.57601562 8.46894531 3.78484375 9.22304688 4 10 C4.66 10.33 5.32 10.66 6 11 C6.625 13.5625 6.625 13.5625 7 16 C4.41515408 15.0195412 3.05156969 14.06077857 1.25 11.9375 C-0.46368617 7.9103375 -0.2538117 4.31479896 0 0 Z " fill="#618D48" transform="translate(107,17)"/>
<path d="M0 0 C1.63001953 0.01353516 1.63001953 0.01353516 3.29296875 0.02734375 C4.12441406 0.03894531 4.95585937 0.05054688 5.8125 0.0625 C5.8125 0.3925 5.8125 0.7225 5.8125 1.0625 C5.11125 1.08828125 4.41 1.1140625 3.6875 1.140625 C-5.11887076 1.66709282 -11.10250579 3.50942931 -17.1875 10.0625 C-17.8475 10.0625 -18.5075 10.0625 -19.1875 10.0625 C-17.79552671 6.67993279 -16.3849504 5.22561318 -13.25 3.375 C-12.56035156 2.95863281 -11.87070313 2.54226562 -11.16015625 2.11328125 C-7.32765422 0.07180987 -4.27281571 -0.04594425 0 0 Z " fill="#707869" transform="translate(130.1875,63.9375)"/>
<path d="M0 0 C0.99 0.33 1.98 0.66 3 1 C3 1.66 3 2.32 3 3 C1 4 -1 5 -3 6 C-3.62648437 6.35964844 -4.25296875 6.71929687 -4.8984375 7.08984375 C-9.87657092 9.85438029 -13.31532646 10.40604811 -19 10 C-19 9.67 -19 9.34 -19 9 C-17.78763672 8.74476562 -17.78763672 8.74476562 -16.55078125 8.484375 C-8.57325506 6.70237713 -8.57325506 6.70237713 -2 2 C-1.34 2 -0.68 2 0 2 C0 1.34 0 0.68 0 0 Z " fill="#456338" transform="translate(156,89)"/>
<path d="M0 0 C0.99 0 1.98 0 3 0 C2.67 3.3 2.34 6.6 2 10 C1.01 9.67 0.02 9.34 -1 9 C-1 8.34 -1 7.68 -1 7 C-1.66 7 -2.32 7 -3 7 C-1.125 2.25 -1.125 2.25 0 0 Z " fill="#645F65" transform="translate(91,79)"/>
<path d="M0 0 C0.66 1.32 1.32 2.64 2 4 C1.34 4.66 0.68 5.32 0 6 C-0.16677282 9.58343976 -0.16677282 9.58343976 0 13 C0.66 13.33 1.32 13.66 2 14 C1.01 14.33 0.02 14.66 -1 15 C-3 13 -3 13 -3.3125 9.1875 C-3.23655163 5.39698569 -2.30623182 3.07497576 0 0 Z " fill="#69A54D" transform="translate(125,20)"/>
<path d="M0 0 C0 0.99 0 1.98 0 3 C-2.26404542 4.36680153 -4.53501021 5.71844445 -6.8125 7.0625 C-7.45509766 7.45244141 -8.09769531 7.84238281 -8.75976562 8.24414062 C-10.4628915 9.24130759 -12.22945858 10.12812687 -14 11 C-14.99 10.67 -15.98 10.34 -17 10 C-5.47835991 2.51708428 -5.47835991 2.51708428 0 0 Z " fill="#9CB889" transform="translate(82,30)"/>
<path d="M0 0 C0.33 0.66 0.66 1.32 1 2 C0.22265625 3.9453125 0.22265625 3.9453125 -0.9375 6.125 C-1.31777344 6.84945312 -1.69804688 7.57390625 -2.08984375 8.3203125 C-2.54037109 9.15175781 -2.54037109 9.15175781 -3 10 C-4.32 9.67 -5.64 9.34 -7 9 C-6.875 6.75 -6.875 6.75 -6 4 C-2.9375 1.6875 -2.9375 1.6875 0 0 Z " fill="#78906D" transform="translate(75,193)"/>
<path d="M0 0 C0.33 0.99 0.66 1.98 1 3 C-1.0978523 4.20005531 -3.2020249 5.38502983 -5.3125 6.5625 C-5.90740234 6.90474609 -6.50230469 7.24699219 -7.11523438 7.59960938 C-8.70282559 8.47766262 -10.34993931 9.24586268 -12 10 C-12.99 9.67 -13.98 9.34 -15 9 C-10.05 6.03 -5.1 3.06 0 0 Z " fill="#AFBE9F" transform="translate(161,181)"/>
<path d="M0 0 C0.66 0 1.32 0 2 0 C1.67 1.98 1.34 3.96 1 6 C1.33 6 1.66 6 2 6 C2 7.65 2 9.3 2 11 C1.01 11.33 0.02 11.66 -1 12 C-1.99 11.34 -2.98 10.68 -4 10 C-2.68 6.7 -1.36 3.4 0 0 Z " fill="#9FA791" transform="translate(190,143)"/>
<path d="M0 0 C4.875 3.75 4.875 3.75 6 6 C6.1875 9 6.1875 9 6 12 C5.34 12.66 4.68 13.32 4 14 C4.020625 12.865625 4.04125 11.73125 4.0625 10.5625 C4.41577477 7.18424326 4.41577477 7.18424326 3 6 C3 7.65 3 9.3 3 11 C1 8 1 8 0.5 5.9375 C0.11802369 3.77936701 0.11802369 3.77936701 -2 2 C-1.34 2 -0.68 2 0 2 C0 1.34 0 0.68 0 0 Z " fill="#665F66" transform="translate(110,134)"/>
<path d="M0 0 C4.52615993 3.67832017 8.39424999 7.41086363 12 12 C11.67 12.66 11.34 13.32 11 14 C7.04 10.04 3.08 6.08 -1 2 C-0.67 1.34 -0.34 0.68 0 0 Z " fill="#A2BC93" transform="translate(183,48)"/>
<path d="M0 0 C2.31 0.33 4.62 0.66 7 1 C7 2.32 7 3.64 7 5 C3.25 6.125 3.25 6.125 1 5 C1 4.34 1 3.68 1 3 C0.34 3 -0.32 3 -1 3 C-0.67 2.01 -0.34 1.02 0 0 Z " fill="#96AA8C" transform="translate(56,180)"/>
<path d="M0 0 C2.09797355 2.09797355 2.96787972 3.75609656 4.1875 6.4375 C4.55230469 7.21996094 4.91710938 8.00242188 5.29296875 8.80859375 C6 11 6 11 5 14 C1.66806381 11.30271832 0.39628004 7.97939813 -1 4 C-0.6875 1.5625 -0.6875 1.5625 0 0 Z " fill="#757F6D" transform="translate(51,145)"/>
<path d="M0 0 C0.33 0.66 0.66 1.32 1 2 C1.66 2.33 2.32 2.66 3 3 C2.34 3 1.68 3 1 3 C0.34 4.65 -0.32 6.3 -1 8 C-1.66 7.01 -2.32 6.02 -3 5 C-3 7.97 -3 10.94 -3 14 C-3.66 13.67 -4.32 13.34 -5 13 C-5.29363808 8.00815264 -5.07836372 5.02555256 -2 1 C-1.34 0.67 -0.68 0.34 0 0 Z " fill="#5F5A5C" transform="translate(125,82)"/>
<path d="M0 0 C4.75097043 4.19203274 8.3879305 9.20631201 11 15 C10.67 15.99 10.34 16.98 10 18 C8.70337462 15.94047642 7.41264273 13.87762943 6.125 11.8125 C5.76019531 11.23435547 5.39539063 10.65621094 5.01953125 10.06054688 C2.9914748 6.79721967 1.29507949 3.61940638 0 0 Z " fill="#8DAC7B" transform="translate(195,61)"/>
<path d="M0 0 C-1 3 -1 3 -2.609375 4.1796875 C-5.88985051 5.30534086 -8.79166963 5.18904316 -12.25 5.125 C-13.51328125 5.10695312 -14.7765625 5.08890625 -16.078125 5.0703125 C-17.04234375 5.04710937 -18.0065625 5.02390625 -19 5 C-19 4.67 -19 4.34 -19 4 C-18.09636719 3.87882813 -17.19273438 3.75765625 -16.26171875 3.6328125 C-15.08222656 3.46523437 -13.90273437 3.29765625 -12.6875 3.125 C-11.51574219 2.96257812 -10.34398438 2.80015625 -9.13671875 2.6328125 C-5.50358371 1.89985126 -3.72343351 0 0 0 Z " fill="#506543" transform="translate(120,164)"/>
<path d="M0 0 C0.33 0 0.66 0 1 0 C1.00386719 0.94359375 1.00386719 0.94359375 1.0078125 1.90625 C1.32537817 8.93503694 3.28287269 12.83568326 8 18 C5.15776803 16.63760782 3.03972359 15.44766831 1 13 C1 12.34 1 11.68 1 11 C0.34 11 -0.32 11 -1 11 C-2.60080151 6.99799622 -1.29279692 3.95443764 0 0 Z " fill="#4C474B" transform="translate(108,81)"/>
<path d="M0 0 C0.66 0 1.32 0 2 0 C0.35433477 5.68502535 -2.29032784 10.76681636 -5 16 C-5.66 16 -6.32 16 -7 16 C-5.26017005 10.18738629 -3.1889511 5.16830006 0 0 Z " fill="#83A06A" transform="translate(41,69)"/>
<path d="M0 0 C1.9451 2.91765 2.45276317 4.62537285 3 8 C3.66 8 4.32 8 5 8 C4.67 8.99 4.34 9.98 4 11 C0.535 9.02 0.535 9.02 -3 7 C-1.125 1.125 -1.125 1.125 0 0 Z " fill="#A8C499" transform="translate(100,206)"/>
<path d="M0 0 C-3.625 3 -3.625 3 -7 3 C-7.33 3.66 -7.66 4.32 -8 5 C-9.32 5 -10.64 5 -12 5 C-12.33 4.01 -12.66 3.02 -13 2 C-11.39935157 1.46845258 -9.79431126 0.95011647 -8.1875 0.4375 C-7.29417969 0.14746094 -6.40085938 -0.14257812 -5.48046875 -0.44140625 C-3 -1 -3 -1 0 0 Z " fill="#9FAF90" transform="translate(139,193)"/>
<path d="M0 0 C2.89932357 2.39509338 3.50168276 4.31245243 4 8 C4.66 8 5.32 8 6 8 C5.88601335 9.62580966 5.75844341 11.25067157 5.625 12.875 C5.55539063 13.77992188 5.48578125 14.68484375 5.4140625 15.6171875 C5 18 5 18 3 20 C3.03480469 19.00419922 3.03480469 19.00419922 3.0703125 17.98828125 C3.20328011 11.48236603 2.66046572 7.49069859 -1 2 C-0.67 1.34 -0.34 0.68 0 0 Z " fill="#444043" transform="translate(138,134)"/>
<path d="M0 0 C1.32 0.33 2.64 0.66 4 1 C3.67 1.99 3.34 2.98 3 4 C1.68 3.67 0.36 3.34 -1 3 C-1 5.31 -1 7.62 -1 10 C-1.99 10 -2.98 10 -4 10 C-4 9.34 -4 8.68 -4 8 C-3.34 8 -2.68 8 -2 8 C-2 6.68 -2 5.36 -2 4 C-3.32 3.67 -4.64 3.34 -6 3 C-4.02 2.67 -2.04 2.34 0 2 C0 1.34 0 0.68 0 0 Z " fill="#7E986A" transform="translate(215,131)"/>
<path d="M0 0 C2.0625 1.75 2.0625 1.75 4 4 C3.75 6.25 3.75 6.25 3 8 C1.68 7.67 0.36 7.34 -1 7 C-1.33 7.66 -1.66 8.32 -2 9 C-2.6875 6.75 -2.6875 6.75 -3 4 C-1.5625 1.6875 -1.5625 1.6875 0 0 Z " fill="#A1B590" transform="translate(194,163)"/>
<path d="M0 0 C0.33 0.99 0.66 1.98 1 3 C1.66 3 2.32 3 3 3 C2.745504 4.48206495 2.47088238 5.96068615 2.1875 7.4375 C2.03667969 8.26121094 1.88585937 9.08492187 1.73046875 9.93359375 C1.48941406 10.61550781 1.24835938 11.29742187 1 12 C0.01 12.33 -0.98 12.66 -2 13 C-2 10.69 -2 8.38 -2 6 C-1.34 6 -0.68 6 0 6 C0 4.02 0 2.04 0 0 Z " fill="#444045" transform="translate(127,144)"/>
<path d="M0 0 C3 1 3 1 4 2.875 C4.33 3.57625 4.66 4.2775 5 5 C5.53625 5.53625 6.0725 6.0725 6.625 6.625 C7.07875 7.07875 7.5325 7.5325 8 8 C8 8.66 8 9.32 8 10 C7.34 10 6.68 10 6 10 C5.01 11.485 5.01 11.485 4 13 C3.566875 11.453125 3.566875 11.453125 3.125 9.875 C2.17691202 6.54992003 1.11743406 3.27248547 0 0 Z " fill="#575357" transform="translate(122,137)"/>
<path d="M0 0 C0.33 0.66 0.66 1.32 1 2 C-0.55555556 6.55555556 -0.55555556 6.55555556 -2 8 C-5.4375 8.1875 -5.4375 8.1875 -9 8 C-9.66 7.34 -10.32 6.68 -11 6 C-9.741875 5.7525 -8.48375 5.505 -7.1875 5.25 C-4.16442273 4.51162006 -3.1940517 4.20617994 -1 1.875 C-0.67 1.25625 -0.34 0.6375 0 0 Z " fill="#686B62" transform="translate(136,90)"/>
<path d="M0 0 C0.99 0.33 1.98 0.66 3 1 C1.02 1.99 1.02 1.99 -1 3 C-1 3.66 -1 4.32 -1 5 C-5.455 5.495 -5.455 5.495 -10 6 C-10 5.01 -10 4.02 -10 3 C-9.0925 3.061875 -8.185 3.12375 -7.25 3.1875 C-3.62353365 2.97828079 -2.74443106 2.17661774 0 0 Z " fill="#56A63C" transform="translate(149,90)"/>
<path d="M0 0 C0.66 0 1.32 0 2 0 C1.18971361 5.50994747 -0.46645469 9.64477391 -4.6875 13.375 C-5.450625 13.91125 -6.21375 14.4475 -7 15 C-6.6875 13.125 -6.6875 13.125 -6 11 C-5.01 10.34 -4.02 9.68 -3 9 C-1.99194445 6.82102508 -1.99194445 6.82102508 -1.3125 4.375 C-1.06113281 3.55773437 -0.80976563 2.74046875 -0.55078125 1.8984375 C-0.36902344 1.27195312 -0.18726563 0.64546875 0 0 Z " fill="#62944D" transform="translate(163,74)"/>
<path d="M0 0 C1.8871875 -0.02126953 1.8871875 -0.02126953 3.8125 -0.04296875 C7 0.1875 7 0.1875 9 2.1875 C6.56304285 2.40931406 4.126474 2.61541119 1.6875 2.8125 C0.65206055 2.90917969 0.65206055 2.90917969 -0.40429688 3.0078125 C-4.2559972 3.30552847 -5.68854416 3.39513723 -9 1.1875 C-6.02958551 -0.29770725 -3.30235553 0.0169178 0 0 Z " fill="#58784D" transform="translate(132,64.8125)"/>
<path d="M0 0 C1.65 0.33 3.3 0.66 5 1 C5 2.32 5 3.64 5 5 C3.68 5 2.36 5 1 5 C-0.77409808 6.92022703 -0.77409808 6.92022703 -2 9 C-1.125 2.25 -1.125 2.25 0 0 Z " fill="#9DB78E" transform="translate(124,208)"/>
<path d="M0 0 C1.77930585 1.0482498 3.54816071 2.11425081 5.3125 3.1875 C6.29863281 3.77917969 7.28476563 4.37085938 8.30078125 4.98046875 C11.11892089 7.08897554 12.42481676 8.88726588 14 12 C13.01 11.67 12.02 11.34 11 11 C11 10.34 11 9.68 11 9 C10.484375 8.7525 9.96875 8.505 9.4375 8.25 C6.22815849 6.60418384 3.12414336 4.8023904 0 3 C0 2.01 0 1.02 0 0 Z " fill="#6D6B6F" transform="translate(111,130)"/>
<path d="M0 0 C2.97850904 0.31912597 4.06711428 1.06167258 6.3125 3.125 C8.49845277 6.84921583 7.9679496 8.88621421 7 13 C6.67 13 6.34 13 6 13 C5.62875 11.4221875 5.62875 11.4221875 5.25 9.8125 C4.23308636 6.17961288 2.5042213 3.83811747 0 1 C0 0.67 0 0.34 0 0 Z " fill="#516B43" transform="translate(131,73)"/>
<path d="M0 0 C5.89571435 2.61743802 10.40785473 7.71743343 14 13 C13.67 13.66 13.34 14.32 13 15 C10.82933435 12.6912253 8.66415316 10.37737901 6.5 8.0625 C5.87996094 7.40314453 5.25992188 6.74378906 4.62109375 6.06445312 C4.03457031 5.43603516 3.44804687 4.80761719 2.84375 4.16015625 C2.02680664 3.28822632 2.02680664 3.28822632 1.19335938 2.39868164 C0 1 0 1 0 0 Z " fill="#658D52" transform="translate(185,49)"/>
<path d="M0 0 C1.34173403 0.92543709 2.67320159 1.86577405 4 2.8125 C5.11375 3.59560547 5.11375 3.59560547 6.25 4.39453125 C7.11625 5.18923828 7.11625 5.18923828 8 6 C8 6.99 8 7.98 8 9 C4.56404834 7.47291037 1.88087546 5.40072955 -1 3 C-0.67 2.01 -0.34 1.02 0 0 Z " fill="#7C8A74" transform="translate(70,176)"/>
<path d="M0 0 C0.66 0 1.32 0 2 0 C2.2475 0.61875 2.495 1.2375 2.75 1.875 C4.20628639 4.35068687 5.37812506 4.95125002 8 6 C6.02 6.99 6.02 6.99 4 8 C2.35 6.68 0.7 5.36 -1 4 C-0.67 2.68 -0.34 1.36 0 0 Z " fill="#829C7A" transform="translate(78,181)"/>
<path d="M0 0 C0.66 0 1.32 0 2 0 C0.39516194 4.66861981 -1.97490194 9.09258167 -5 13 C-5.66 13 -6.32 13 -7 13 C-5.39516194 8.33138019 -3.02509806 3.90741833 0 0 Z " fill="#99A28D" transform="translate(185,155)"/>
<path d="M0 0 C0.1953125 6.0546875 0.1953125 6.0546875 0 8 C-0.66 8.66 -1.32 9.32 -2 10 C-2.66 9.67 -3.32 9.34 -4 9 C-4.368 3.48 -4.368 3.48 -2.5625 1.125 C-1 0 -1 0 0 0 Z " fill="#679253" transform="translate(135,17)"/>
<path d="M0 0 C0.99 0 1.98 0 3 0 C4.625 2.75 4.625 2.75 6 6 C5.1875 8.375 5.1875 8.375 4 10 C4 9.01 4 8.02 4 7 C3.34 7 2.68 7 2 7 C0.5393715 4.35261084 0 3.10551666 0 0 Z " fill="#7B9364" transform="translate(159,197)"/>
<path d="M0 0 C1.7015625 0.2475 1.7015625 0.2475 3.4375 0.5 C6.83278957 1.31993361 6.83278957 1.31993361 9 0 C9 4 9 4 8 6 C4.54074837 4.7508258 1.85306797 3.32472205 -1 1 C-0.67 0.67 -0.34 0.34 0 0 Z " fill="#839979" transform="translate(194,171)"/>
<path d="M0 0 C2.31 0.33 4.62 0.66 7 1 C7.33 2.65 7.66 4.3 8 6 C5.69 6 3.38 6 1 6 C1 5.34 1 4.68 1 4 C1.66 4 2.32 4 3 4 C3 3.34 3 2.68 3 2 C2.01 1.67 1.02 1.34 0 1 C0 0.67 0 0.34 0 0 Z " fill="#727172" transform="translate(103,133)"/>
<path d="M0 0 C0.36923077 5.41538462 0.36923077 5.41538462 -1.5 8.375 C-1.995 8.91125 -2.49 9.4475 -3 10 C-3.93423645 6.98968256 -4.04449911 6.13349732 -3 3 C-3.66 2.67 -4.32 2.34 -5 2 C-2 0 -2 0 0 0 Z " fill="#535E4B" transform="translate(168,71)"/>
<path d="M0 0 C4.63720719 3.27530896 8.68542782 6.30435607 12 11 C11.67 11.66 11.34 12.32 11 13 C9.62437146 11.71034824 8.29233607 10.37310707 7 9 C7 8.34 7 7.68 7 7 C6.401875 6.731875 5.80375 6.46375 5.1875 6.1875 C3.00152146 5.00082594 1.58667406 3.90400887 0 2 C0 1.34 0 0.68 0 0 Z " fill="#A9B5A3" transform="translate(169,61)"/>
<path d="M0 0 C0.66 0.33 1.32 0.66 2 1 C2.28571429 8.42857143 2.28571429 8.42857143 0 12 C-0.66 12 -1.32 12 -2 12 C-2.125 9.125 -2.125 9.125 -2 6 C-1.34 5.34 -0.68 4.68 0 4 C0 2.68 0 1.36 0 0 Z " fill="#5F9244" transform="translate(126,19)"/>
<path d="M0 0 C1.32 0 2.64 0 4 0 C4.66 1.98 5.32 3.96 6 6 C5.34 6.66 4.68 7.32 4 8 C3.54625 7.21625 3.0925 6.4325 2.625 5.625 C1.11571258 2.96301969 1.11571258 2.96301969 -1 1 C-0.67 0.67 -0.34 0.34 0 0 Z " fill="#808E70" transform="translate(153,199)"/>
<path d="M0 0 C1.32 0 2.64 0 4 0 C4.33 1.32 4.66 2.64 5 4 C3.02 4.99 1.04 5.98 -1 7 C-1 3 -1 3 0 0 Z " fill="#8C9987" transform="translate(48,168)"/>
<path d="M0 0 C1.32 0.66 2.64 1.32 4 2 C3.01 2.495 3.01 2.495 2 3 C2 4.98 2 6.96 2 9 C1.34 9 0.68 9 0 9 C-1.125 2.25 -1.125 2.25 0 0 Z " fill="#7D8C73" transform="translate(26,132)"/>
<path d="M0 0 C1.9375 0.6875 1.9375 0.6875 4 2 C4.75 4.625 4.75 4.625 5 7 C2 7 2 7 -1 6 C-1.042721 4.33388095 -1.04063832 2.66617115 -1 1 C-0.67 0.67 -0.34 0.34 0 0 Z " fill="#9CAE8E" transform="translate(34,130)"/>
<path d="M0 0 C4.30764815 1.56641751 8.06171464 3.68336156 12 6 C12 6.66 12 7.32 12 8 C7.9642154 6.77987907 4.44593665 5.46138332 1 3 C0.67 2.01 0.34 1.02 0 0 Z " fill="#848285" transform="translate(109,108)"/>
<path d="M0 0 C1.125 1.5625 1.125 1.5625 2 4 C1.3125 7.625 1.3125 7.625 0 11 C-0.99 11.66 -1.98 12.32 -3 13 C-2.45144652 8.428721 -1.58255197 4.32564205 0 0 Z " fill="#83907B" transform="translate(50,93)"/>
<path d="M0 0 C-6.93 3.465 -6.93 3.465 -14 7 C-11.72284644 2.44569288 -11.72284644 2.44569288 -8.125 0.6875 C-7.44695312 0.34074219 -6.76890625 -0.00601563 -6.0703125 -0.36328125 C-4 -1 -4 -1 0 0 Z " fill="#97B381" transform="translate(85,35)"/>
<path d="M0 0 C0 0.66 0 1.32 0 2 C-4.33420699 4.03165952 -8.28596212 4.52060632 -13 5 C-10.83636556 1.75454834 -10.59899094 1.58302037 -7.0625 0.8125 C-6.37285156 0.65394531 -5.68320313 0.49539062 -4.97265625 0.33203125 C-3 0 -3 0 0 0 Z " fill="#72935A" transform="translate(102,26)"/>
<path d="M0 0 C2.475 0.495 2.475 0.495 5 1 C5.625 2.8125 5.625 2.8125 6 5 C5.01 6.485 5.01 6.485 4 8 C3.01 8 2.02 8 1 8 C1 7.34 1 6.68 1 6 C1.66 6 2.32 6 3 6 C3 4.68 3 3.36 3 2 C2.01 1.67 1.02 1.34 0 1 C0 0.67 0 0.34 0 0 Z " fill="#A0B393" transform="translate(35,149)"/>
<path d="M0 0 C-1.55851755 0.82011312 -3.12201716 1.63076213 -4.6875 2.4375 C-5.55761719 2.88996094 -6.42773438 3.34242187 -7.32421875 3.80859375 C-9.90998264 4.95991928 -12.21356528 5.56320753 -15 6 C-12.87748883 3.69895986 -10.84451444 2.18105541 -8.0625 0.75 C-7.39347656 0.39421875 -6.72445312 0.0384375 -6.03515625 -0.328125 C-3.61730731 -1.12634 -2.36988243 -0.82707306 0 0 Z " fill="#6D9256" transform="translate(88,32)"/>
<path d="M0 0 C3.26008643 3.16952847 6.22237877 6.39937989 9 10 C6 10 6 10 4.39453125 8.57421875 C3.61142578 7.64029297 3.61142578 7.64029297 2.8125 6.6875 C2.01779297 5.76517578 2.01779297 5.76517578 1.20703125 4.82421875 C0 3 0 3 0 0 Z " fill="#969F8C" transform="translate(59,166)"/>
<path d="M0 0 C0.99 0 1.98 0 3 0 C2.39009109 3.55780196 1.4216319 6.6828589 0 10 C-0.66 9.67 -1.32 9.34 -2 9 C-1.125 1.125 -1.125 1.125 0 0 Z " fill="#816D75" transform="translate(144,143)"/>
<path d="M0 0 C1.5625 2.8125 1.5625 2.8125 3 6 C2.67 6.99 2.34 7.98 2 9 C-2 4.25 -2 4.25 -2 2 C-2.99 1.67 -3.98 1.34 -5 1 C-3 0 -3 0 0 0 Z " fill="#8B9784" transform="translate(188,82)"/>
<path d="M0 0 C1.32 0.99 2.64 1.98 4 3 C3.34 4.98 2.68 6.96 2 9 C1.34 9 0.68 9 0 9 C-1.125 2.25 -1.125 2.25 0 0 Z M0 3 C0 3.66 0 4.32 0 5 C0.66 5 1.32 5 2 5 C2 4.34 2 3.68 2 3 C1.34 3 0.68 3 0 3 Z " fill="#88B773" transform="translate(120,13)"/>
<path d="M0 0 C0.99 0.33 1.98 0.66 3 1 C0.75 3.5625 0.75 3.5625 -2 6 C-4.3125 5.8125 -4.3125 5.8125 -6 5 C-1.60546875 0.99609375 -1.60546875 0.99609375 0 0 Z " fill="#828E74" transform="translate(170,177)"/>
<path d="M0 0 C4 4.75 4 4.75 4 7 C4.99 7.33 5.98 7.66 7 8 C4.6875 8.25 4.6875 8.25 2 8 C0.125 6.25 0.125 6.25 -1 4 C-0.6875 1.75 -0.6875 1.75 0 0 Z " fill="#779367" transform="translate(32,150)"/>
<path d="M0 0 C0.99 0.495 0.99 0.495 2 1 C2 1.66 2 2.32 2 3 C2.66 3 3.32 3 4 3 C4 5.64 4 8.28 4 11 C3.34 10.67 2.68 10.34 2 10 C1.3671875 7.71484375 1.3671875 7.71484375 0.875 4.9375 C0.70742187 4.01839844 0.53984375 3.09929687 0.3671875 2.15234375 C0.24601563 1.44207031 0.12484375 0.73179688 0 0 Z " fill="#403E3F" transform="translate(146,127)"/>
<path d="M0 0 C0.66 0.33 1.32 0.66 2 1 C2.75 3.875 2.75 3.875 3 7 C2.01 8.485 2.01 8.485 1 10 C-0.80411967 7.24075815 -1.0127245 6.11027897 -0.625 2.75 C-0.41875 1.8425 -0.2125 0.935 0 0 Z " fill="#494548" transform="translate(122,87)"/>
<path d="M0 0 C0.97608217 2.92824652 1.08226668 4.95613276 1 8 C-0.32 8.33 -1.64 8.66 -3 9 C-2.44271087 5.65626525 -1.64826111 2.96687001 0 0 Z " fill="#899A84" transform="translate(96,206)"/>
<path d="M0 0 C1.32 0 2.64 0 4 0 C4 0.66 4 1.32 4 2 C3.01 2.495 3.01 2.495 2 3 C1.34786708 5.02463255 1.34786708 5.02463255 1 7 C0.01 6.67 -0.98 6.34 -2 6 C-1.49396008 3.83125748 -1.00016187 2.00032373 0 0 Z " fill="#A1BB91" transform="translate(204,150)"/>
<path d="M0 0 C4.43379675 2.21689838 6.46636932 4.77728219 9 9 C8.01 9 7.02 9 6 9 C5.62875 8.1028125 5.62875 8.1028125 5.25 7.1875 C3.83555909 4.71222841 2.27139812 3.66569196 0 2 C0 1.34 0 0.68 0 0 Z " fill="#666366" transform="translate(120,133)"/>
<path d="M0 0 C0.185625 0.9590625 0.185625 0.9590625 0.375 1.9375 C0.684375 2.9584375 0.684375 2.9584375 1 4 C1.66 4.33 2.32 4.66 3 5 C3 5.66 3 6.32 3 7 C1.02 7 -0.96 7 -3 7 C-2.1654738 4.49642139 -1.20628008 2.33214148 0 0 Z " fill="#519E35" transform="translate(121,28)"/>
<path d="M0 0 C0.66 0 1.32 0 2 0 C2.66 3.63 3.32 7.26 4 11 C3.34 11 2.68 11 2 11 C0.80712589 7.12315913 0 4.08378077 0 0 Z " fill="#6AA952" transform="translate(116,20)"/>
<path d="M0 0 C0 0.66 0 1.32 0 2 C-0.99 2 -1.98 2 -3 2 C-3.33 2.99 -3.66 3.98 -4 5 C-5.65 4.67 -7.3 4.34 -9 4 C-9 3.34 -9 2.68 -9 2 C-2.25 0 -2.25 0 0 0 Z " fill="#6A9B52" transform="translate(134,14)"/>
<path d="M0 0 C3.76854223 1.25618074 4.07958456 2.66014706 6 6 C6.66 6.33 7.32 6.66 8 7 C8 7.66 8 8.32 8 9 C5.6875 8.4375 5.6875 8.4375 3 7 C1.65223022 4.72037377 0.88635784 2.51912228 0 0 Z " fill="#8FA07D" transform="translate(152,201)"/>
<path d="M0 0 C0.99 0.33 1.98 0.66 3 1 C2.6875 2.9375 2.6875 2.9375 2 5 C1.01 5.33 0.02 5.66 -1 6 C-1.625 4.125 -1.625 4.125 -2 2 C-1.34 1.34 -0.68 0.68 0 0 Z " fill="#D4F3C1" transform="translate(174,190)"/>
<path d="M0 0 C1.65 0 3.3 0 5 0 C3.125 4.75 3.125 4.75 2 7 C1.34 7 0.68 7 0 7 C0 4.69 0 2.38 0 0 Z " fill="#89917C" transform="translate(186,154)"/>
<path d="M0 0 C6.75 1.625 6.75 1.625 9 5 C8.34 5.66 7.68 6.32 7 7 C5.83040013 6.02433888 4.66438823 5.044375 3.5 4.0625 C2.8503125 3.51722656 2.200625 2.97195312 1.53125 2.41015625 C1.0259375 1.94480469 0.520625 1.47945313 0 1 C0 0.67 0 0.34 0 0 Z " fill="#4C494C" transform="translate(131,110)"/>
<path d="M0 0 C0.66 0 1.32 0 2 0 C2 0.66 2 1.32 2 2 C2.66 1.67 3.32 1.34 4 1 C5.99960012 0.960008 8.00047242 0.95653201 10 1 C6.51847024 3.32101984 4.13830989 3.69903201 0 4 C-0.66 3.34 -1.32 2.68 -2 2 C-1.34 1.34 -0.68 0.68 0 0 Z " fill="#659050" transform="translate(136,95)"/>
<path d="M0 0 C-0.33 0.66 -0.66 1.32 -1 2 C-3.06640625 2.4140625 -3.06640625 2.4140625 -5.5625 2.625 C-6.38878906 2.69976562 -7.21507813 2.77453125 -8.06640625 2.8515625 C-9.02353516 2.92503906 -9.02353516 2.92503906 -10 3 C-6.46873184 -0.69178035 -5.02635024 -1.19045137 0 0 Z " fill="#698F5B" transform="translate(128,68)"/>
<path d="M0 0 C1.32 0 2.64 0 4 0 C4 2 4 2 2.5625 3.5 C2.046875 3.995 1.53125 4.49 1 5 C0.67 5.66 0.34 6.32 0 7 C-0.66 7 -1.32 7 -2 7 C-1.34 4.69 -0.68 2.38 0 0 Z " fill="#739069" transform="translate(98,204)"/>
<path d="M0 0 C0.66 0 1.32 0 2 0 C1.67 1.98 1.34 3.96 1 6 C0.01 6 -0.98 6 -2 6 C-2.33 4.68 -2.66 3.36 -3 2 C-2.34 2 -1.68 2 -1 2 C-0.67 1.34 -0.34 0.68 0 0 Z " fill="#9BB185" transform="translate(144,202)"/>
<path d="M0 0 C2 1 4 2 6 3 C6 3.66 6 4.32 6 5 C6.99 5.33 7.98 5.66 9 6 C8.34 6 7.68 6 7 6 C6.67 6.66 6.34 7.32 6 8 C2.76260721 6.3813036 1.57755229 3.15510457 0 0 Z " fill="#5E5C5E" transform="translate(101,102)"/>
<path d="M0 0 C0.99 0.33 1.98 0.66 3 1 C3 1.66 3 2.32 3 3 C0.03 3.66 -2.94 4.32 -6 5 C-3 2 -3 2 0 0 Z " fill="#93A182" transform="translate(88,52)"/>
<path d="M0 0 C1.09658936 3.28976808 0.79953138 4.71303767 0 8 C-0.66 8 -1.32 8 -2 8 C-2.6875 5.6875 -2.6875 5.6875 -3 3 C-1.5625 1.1875 -1.5625 1.1875 0 0 Z " fill="#88B061" transform="translate(128,28)"/>
<path d="M0 0 C1.65 0 3.3 0 5 0 C5 2.64 5 5.28 5 8 C4.67 8 4.34 8 4 8 C3.67 6.02 3.34 4.04 3 2 C2.01 3.485 2.01 3.485 1 5 C0.67 3.35 0.34 1.7 0 0 Z " fill="#7DA56C" transform="translate(131,16)"/>
<path d="M0 0 C0.33 0.99 0.66 1.98 1 3 C-0.625 4.1875 -0.625 4.1875 -3 5 C-6.25 3.625 -6.25 3.625 -9 2 C-5.52176885 0.84058962 -3.54104422 1.29179116 0 2 C0 1.34 0 0.68 0 0 Z " fill="#98B887" transform="translate(117,11)"/>
<path d="M0 0 C0.99 0.66 1.98 1.32 3 2 C1.1875 3.5625 1.1875 3.5625 -1 5 C-1.99 4.67 -2.98 4.34 -4 4 C-4 3.34 -4 2.68 -4 2 C-2.68 1.34 -1.36 0.68 0 0 Z " fill="#92A283" transform="translate(155,187)"/>
<path d="M0 0 C0 0.66 0 1.32 0 2 C-0.99 2 -1.98 2 -3 2 C-3 2.66 -3 3.32 -3 4 C-4.65 3.67 -6.3 3.34 -8 3 C-6.14481495 -0.71037009 -3.79223618 -1.26407873 0 0 Z " fill="#8E9F7B" transform="translate(189,180)"/>
<path d="M0 0 C2.5 2.25 2.5 2.25 5 5 C5 6.32 5 7.64 5 9 C4.34 9 3.68 9 3 9 C0 3.375 0 3.375 0 0 Z " fill="#718960" transform="translate(188,177)"/>
<path d="M0 0 C0.33 0.99 0.66 1.98 1 3 C0.01 3.33 -0.98 3.66 -2 4 C-3.20882096 6.00016466 -3.20882096 6.00016466 -4 8 C-4.66 8 -5.32 8 -6 8 C-4.55746343 4.63408134 -2.66735273 2.48952921 0 0 Z " fill="#B0B9A5" transform="translate(172,172)"/>
<path d="M0 0 C0.66 0 1.32 0 2 0 C1.67 1.98 1.34 3.96 1 6 C2.32 6.33 3.64 6.66 5 7 C3.33388095 7.042721 1.66617115 7.04063832 0 7 C-1 6 -1 6 -1.125 3.5 C-1 1 -1 1 0 0 Z " fill="#608451" transform="translate(72,155)"/>
<path d="M0 0 C1.98 0.66 3.96 1.32 6 2 C6 2.66 6 3.32 6 4 C6.99 4.33 7.98 4.66 9 5 C8.67 5.66 8.34 6.32 8 7 C4.46399535 5.08864614 2.21027154 3.37357234 0 0 Z " fill="#4D4A50" transform="translate(95,118)"/>
<path d="M0 0 C1.65 0 3.3 0 5 0 C4.67 1.65 4.34 3.3 4 5 C3.67 4.01 3.34 3.02 3 2 C1.02 2.99 1.02 2.99 -1 4 C-0.67 2.68 -0.34 1.36 0 0 Z " fill="#97A88E" transform="translate(72,192)"/>
<path d="M0 0 C-1.75 1.5625 -1.75 1.5625 -4 3 C-6.25 2.6875 -6.25 2.6875 -8 2 C-7 0 -7 0 -5.125 -0.6875 C-3 -1 -3 -1 0 0 Z " fill="#67865C" transform="translate(118,164)"/>
<path d="M0 0 C0.66 0 1.32 0 2 0 C2.625 3.375 2.625 3.375 3 7 C2.34 7.66 1.68 8.32 1 9 C0.67 6.03 0.34 3.06 0 0 Z " fill="#74856D" transform="translate(46,131)"/>
<path d="M0 0 C0.99 0 1.98 0 3 0 C2.67 2.31 2.34 4.62 2 7 C1.34 6.67 0.68 6.34 0 6 C0 5.34 0 4.68 0 4 C-0.66 3.67 -1.32 3.34 -2 3 C-1.34 2.01 -0.68 1.02 0 0 Z " fill="#4E4A4F" transform="translate(94,75)"/>
<path d="M0 0 C0.99 0.33 1.98 0.66 3 1 C1.71717836 3.56564327 0.60228656 3.88473433 -2 5 C-3.3242287 5.36784131 -4.65613912 5.71202981 -6 6 C-4 4 -2 2 0 0 Z " fill="#69657A" transform="translate(101,69)"/>
<path d="M0 0 C0 0.99 0 1.98 0 3 C-2.5 4.6875 -2.5 4.6875 -5 6 C-5 4.68 -5 3.36 -5 2 C-2 0 -2 0 0 0 Z " fill="#929E84" transform="translate(80,58)"/>
<path d="M0 0 C4.20626034 1.50223584 5.73900021 4.28550034 8 8 C3.79373966 6.49776416 2.26099979 3.71449966 0 0 Z " fill="#84A578" transform="translate(196,59)"/>
</svg>
